<?xml version="1.0" encoding="utf-8"?>
<!-- Generator: Adobe Illustrator 22.0.1, SVG Export Plug-In . SVG Version: 6.00 Build 0)  -->
<svg version="1.1" xmlns="http://www.w3.org/2000/svg" xmlns:xlink="http://www.w3.org/1999/xlink" x="0px" y="0px"
	 viewBox="0 0 512 512" style="enable-background:new 0 0 512 512;" xml:space="preserve">
<style type="text/css">
	.st0{fill:#71BCFF;}
	.st1{fill:#E49696;}
	.st2{fill:#EFC971;}
	.st3{fill:#77D284;}
	.st4{fill:#7F78BB;}
	.st5{fill:#518FF4;}
	.st6{fill:#EAA9B9;}
	.st7{fill:#F5DE92;}
	.st8{fill:#96EBE4;}
	.st9{fill:#E6AFC1;}
	.st10{fill:#5596C6;}
	.st11{fill:#74B1F6;}
	.st12{fill:#F5E5BD;}
	.st13{fill:none;stroke:#5E8783;stroke-width:8;stroke-linecap:round;stroke-miterlimit:10;}
	.st14{fill:#679795;}
	.st15{fill:#74AAAA;}
	.st16{fill:#7FBDBF;}
	.st17{fill:#D3F8F5;}
	.st18{fill:#7BB5B2;}
	.st19{fill:#B7F1F1;}
	.st20{fill:#A8DBD9;}
	.st21{fill:none;stroke:#748BA4;stroke-width:8;stroke-linecap:round;stroke-miterlimit:10;}
	.st22{fill:#748BA4;}
	.st23{fill:#82A0C8;}
	.st24{fill:#7C96B6;}
	.st25{fill:#8DAADE;}
	.st26{fill:#A0BDE5;}
	.st27{fill:none;stroke:#99536E;stroke-width:8;stroke-linecap:round;stroke-miterlimit:10;}
	.st28{fill:#99536E;}
	.st29{fill:#A35B7B;}
	.st30{fill:#E393AC;}
	.st31{fill:#E06E8A;}
	.st32{fill:#B45B77;}
	.st33{fill:#EEC8D7;}
	.st34{fill:#E8B9B9;}
	.st35{fill:#DA4545;}
	.st36{fill:#A63F3F;}
	.st37{fill:#DB5757;}
	.st38{fill:#ECF6FF;}
	.st39{fill:#DB50B1;}
	.st40{fill:#B24798;}
	.st41{fill:#E093D2;}
	.st42{fill:#A3CCF8;}
	.st43{fill:#CBE7FA;}
	.st44{fill:#AD3C3C;}
	.st45{fill:#DD88A0;}
	.st46{fill:#C47E94;}
	.st47{fill:#7673AB;}
	.st48{fill:#D6B168;}
	.st49{fill:#75ACAC;}
	.st50{fill:#FFFFFF;}
	.st51{fill:#E3B6C5;}
	.st52{fill:#DE6F6F;}
	.st53{fill:none;}
	.st54{fill:#90BFEA;}
	.st55{fill:#DB6E6E;}
	.st56{fill:#B13E3E;}
	.st57{fill:#C66666;}
	.st58{fill:#CF98A8;}
	.st59{fill:#F1D4DD;}
	.st60{fill:#B8899A;}
	.st61{fill:#7370AA;}
	.st62{fill:#8A87CE;}
	.st63{fill:#DA6464;}
	.st64{fill:#589960;}
	.st65{fill:#67B575;}
	.st66{fill:#C78321;}
	.st67{fill:#D7C431;}
	.st68{fill:#E59B25;}
	.st69{fill:#F6E637;}
	.st70{fill:#D3AE68;}
	.st71{fill:#1C314E;}
	.st72{fill:#FFFDFC;}
	.st73{fill:#DC8282;}
	.st74{fill:#DBDBDB;}
	.st75{fill:#CC6785;}
	.st76{fill:#D29FAE;}
	.st77{fill:#C4C4C4;}
	.st78{fill:#B13D3D;}
	.st79{fill:#9D3A3A;}
	.st80{fill:#F3DDB1;}
	.st81{fill:#D6B269;}
	.st82{fill:#C6819A;}
	.st83{fill:#B77C94;}
	.st84{fill:#DACFB5;}
	.st85{fill:#E9DCBC;}
	.st86{fill:#7471AB;}
	.st87{fill:#DE9BBA;}
	.st88{fill:#D189A6;}
	.st89{fill:#C2E1FD;}
	.st90{fill:#BC6383;}
	.st91{fill:#9B99D9;}
	.st92{fill:#F4E2B1;}
	.st93{fill:#B96281;}
	.st94{fill:#B08979;}
	.st95{fill:#D9A2B2;}
	.st96{fill:#F0D0D9;}
	.st97{fill:#DCBFC8;}
	.st98{fill:#708761;}
	.st99{fill:#779366;}
	.st100{fill:#9FBF8B;}
	.st101{fill:#A37F72;}
	.st102{fill:#D59EAE;}
	.st103{fill:#BC6381;}
	.st104{fill:#716EA8;}
	.st105{fill:#8481B6;}
	.st106{fill:#918BC6;}
	.st107{fill:#76AFAF;}
	.st108{fill:#BEDBD8;}
	.st109{fill:#EAB9C9;}
	.st110{fill:#A03B3B;}
	.st111{fill:#893535;}
	.st112{fill:#EFCED8;}
	.st113{fill:#F7EB83;}
	.st114{fill:#F1D7D7;}
	.st115{fill:#A35773;}
	.st116{fill:#DCC832;}
	.st117{fill:#BD8F9E;}
	.st118{fill:#6F6DA6;}
	.st119{fill:#D7A0B0;}
	.st120{fill:#8C89CC;}
	.st121{fill:none;stroke:#FFFFFF;stroke-width:8;stroke-linecap:round;stroke-miterlimit:10;}
	.st122{fill:#B53C3C;}
	.st123{fill:#C5E3DF;}
	.st124{fill:#956C42;}
	.st125{fill:#BD8E4D;}
	.st126{fill:#A97C47;}
	.st127{fill:#F5DEAE;}
	.st128{fill:#EDC495;}
	.st129{fill:#6F6DA4;}
	.st130{fill:#704A42;}
	.st131{fill:#A57A46;}
	.st132{fill:#C4DEF9;}
	.st133{fill:#B4CDE2;}
	.st134{fill:#8F8CD2;}
	.st135{fill:#A6BDCB;}
	.st136{fill:#9EB3BE;}
	.st137{fill:#9BAEB9;}
	.st138{fill:#71A5A5;}
	.st139{fill:none;stroke:#31315D;stroke-width:8;stroke-miterlimit:10;}
	.st140{fill:#C1F6F6;}
	.st141{fill:#C66482;}
	.st142{fill:#ABD6D4;}
	.st143{fill:#A5597B;}
	.st144{fill:#ECCBD5;}
	.st145{fill:#3E3A73;}
	.st146{fill:#453D80;}
	.st147{fill:#31315D;}
	.st148{fill:#D3BEC5;}
	.st149{fill:#7370A9;}
	.st150{fill:#A0526B;}
	.st151{fill:#D3AA5F;}
	.st152{fill:#F1D69F;}
	.st153{fill:#CC9180;}
	.st154{fill:#E4A38D;}
	.st155{fill:#E0A693;}
	.st156{fill:#EDBCA8;}
	.st157{fill:#E0A745;}
	.st158{fill:#3C3970;}
	.st159{fill:#4E4991;}
	.st160{fill:#B3ADFB;}
	.st161{fill:#B9863F;}
	.st162{fill:#CD9642;}
	.st163{fill:#BA893F;}
	.st164{fill:#A97C3D;}
	.st165{fill:#182A3F;}
	.st166{fill:none;stroke:#805D31;stroke-width:12;stroke-linecap:round;stroke-miterlimit:10;}
	.st167{fill:#EAC382;}
	.st168{fill:#467ABC;}
	.st169{fill:#D19943;}
	.st170{fill:#C26280;}
	.st171{fill:#CD97A7;}
	.st172{fill:#DEDCDC;}
	.st173{fill:#A53636;}
	.st174{fill:#D6D6D6;}
	.st175{fill:#A67B47;}
	.st176{fill:#A0546F;}
	.st177{fill:#B8D6D3;}
	.st178{fill:#A19EF2;}
	.st179{fill:none;stroke:#453D80;stroke-width:8;stroke-linecap:round;stroke-miterlimit:10;}
	.st180{fill:#E08DA7;}
	.st181{fill:#DA6A19;}
	.st182{fill:#A7F6F6;}
	.st183{fill:#BE6480;}
	.st184{fill:#C2809A;}
	.st185{fill:#C06581;}
	.st186{fill:#A8607D;}
	.st187{fill:#618C88;}
	.st188{fill:#676797;}
	.st189{fill:#D2FFFC;}
	.st190{fill:#3C3870;}
	.st191{fill:#BFE3E0;}
	.st192{fill:#DEC888;}
	.st193{fill:#9A9AE4;}
	.st194{fill:#689795;}
	.st195{fill:#A1E8E8;}
	.st196{fill:#C3A062;}
	.st197{fill:#C5A162;}
	.st198{fill:#EDC771;}
	.st199{fill:#DBC586;}
	.st200{fill:#D1D1D1;}
	.st201{fill:#AF8F5B;}
	.st202{fill:#F6EAC7;}
	.st203{fill:#7F78B9;}
	.st204{fill:#E9A7B7;}
	.st205{fill:#8A87CA;}
	.st206{fill:#ECC6D5;}
	.st207{fill:#D1F6F3;}
	.st208{fill:#D69EAC;}
	.st209{fill:#AC8494;}
	.st210{fill:#BB8D9C;}
	.st211{fill:#7F7FBA;}
	.st212{fill:#C3E3DF;}
	.st213{fill:none;stroke:#5E8581;stroke-width:8;stroke-linecap:round;stroke-miterlimit:10;}
	.st214{fill:#669593;}
	.st215{fill:#74A8A8;}
	.st216{fill:#7EBBBC;}
	.st217{fill:#7AB3B0;}
	.st218{fill:#B5EFEF;}
	.st219{fill:#A6D9D7;}
	.st220{fill:#BD8F9F;}
	.st221{fill:#D29CAC;}
	.st222{fill:none;stroke:#98536E;stroke-width:8;stroke-linecap:round;stroke-miterlimit:10;}
	.st223{fill:#993737;}
	.st224{fill:#AC3939;}
	.st225{fill:#C3E1DD;}
	.st226{fill:#E5CE8C;}
	.st227{fill:#BF9869;}
	.st228{fill:#D3A971;}
	.st229{fill:#FBF4DD;}
	.st230{fill:#A35974;}
	.st231{fill:#73AAAA;}
	.st232{fill:#A55874;}
	.st233{fill:#E8BAAD;}
	.st234{fill:#DA9B8A;}
	.st235{fill:#D9B46B;}
	.st236{fill:#A36C56;}
	.st237{fill:#936252;}
	.st238{fill:#AB705D;}
	.st239{fill:#8A5C4D;}
	.st240{fill:#805649;}
	.st241{fill:#D3A29A;}
	.st242{fill:#AB5977;}
	.st243{fill:#B53F6A;}
	.st244{fill:#81574B;}
	.st245{fill:#F0D2DC;}
	.st246{fill:#93D4CF;}
	.st247{fill:#B6FBFB;}
	.st248{fill:#E0B96C;}
	.st249{fill:#A83A3A;}
	.st250{fill:#793131;}
	.st251{fill:#873333;}
	.st252{fill:#722E2E;}
	.st253{fill:#B53F3F;}
	.st254{fill:#E09393;}
	.st255{fill:#C4B180;}
	.st256{fill:#B19F76;}
	.st257{fill:#F3DC90;}
	.st258{fill:#E3CC8B;}
	.st259{fill:#774F43;}
	.st260{fill:#624038;}
	.st261{fill:#90FF9A;}
	.st262{fill:#91D2CD;}
	.st263{fill:#B4F9F9;}
	.st264{fill:#BB8C4D;}
	.st265{fill:#DE6E88;}
	.st266{fill:#BA6381;}
	.st267{fill:#B25B77;}
	.st268{fill:#9DD6D3;}
	.st269{fill:#B95F7C;}
	.st270{fill:#F3D5DF;}
	.st271{fill:#B9D9D6;}
	.st272{fill:#A9C7C4;}
	.st273{fill:#71A7A7;}
	.st274{fill:#833232;}
	.st275{fill:#9B3A3A;}
	.st276{fill:#752F2F;}
	.st277{fill:#B53E3E;}
	.st278{fill:#B58E9D;}
	.st279{fill:#BB909F;}
	.st280{fill:#CD99A8;}
	.st281{fill:#F2D9E1;}
	.st282{fill:#9BD4D1;}
	.st283{fill:#B2F7F7;}
	.st284{fill:#F1DA8E;}
	.st285{fill:#F2E0AF;}
	.st286{fill:#F9F9FF;}
	.st287{fill:#CA8F80;}
	.st288{fill:#E2A18B;}
	.st289{fill:#E6B8AB;}
	.st290{fill:#D89988;}
	.st291{fill:#D7B26B;}
	.st292{fill:#8D8ACE;}
	.st293{fill:#9FD6D2;}
	.st294{fill:#B3F3F0;}
	.st295{fill:#C8FFFF;}
	.st296{fill:#F4DAA4;}
	.st297{fill:#BFBFBF;}
	.st298{fill:#D7A2B2;}
	.st299{fill:#D4D4D4;}
	.st300{fill:#EDD094;}
	.st301{fill:#BF8E9D;}
	.st302{fill:#AA8190;}
	.st303{fill:#D69EAE;}
	.st304{fill:#AD3D3D;}
	.st305{fill:#8986CE;}
	.st306{fill:#B24B6B;}
	.st307{fill:#EFCD88;}
	.st308{fill:#F4E9CC;}
	.st309{fill:#CFAA66;}
	.st310{fill:#F8E9C9;}
	.st311{fill:#3B386E;}
	.st312{fill:#AA3939;}
	.st313{fill:#67433B;}
	.st314{fill:#CF9AAA;}
	.st315{fill:#C46583;}
	.st316{fill:#9491D7;}
	.st317{fill:#8784C9;}
	.st318{fill:#FBFBFB;}
	.st319{fill:#D3BE80;}
	.st320{fill:none;stroke:#453D80;stroke-width:8;stroke-miterlimit:10;}
	.st321{fill:#C591A0;}
	.st322{fill:#F1D7DF;}
	.st323{fill:#AD7F8E;}
	.st324{fill:#D8C3CA;}
	.st325{fill:#DFA868;}
	.st326{fill:#C66684;}
	.st327{fill:#C7C7C7;}
	.st328{fill:#AA5F80;}
	.st329{fill:#A75770;}
	.st330{fill:#93506A;}
	.st331{fill:#D1AC66;}
	.st332{fill:#F4E0B8;}
	.st333{fill:#F4D7E1;}
	.st334{fill:#EECA80;}
	.st335{fill:#C0DFFB;}
	.st336{fill:#DC5E5E;}
	.st337{fill:#CD9942;}
	.st338{fill:#E1AA46;}
	.st339{fill:#F4D8A2;}
	.st340{fill:#27918E;}
	.st341{fill:#29A3A3;}
	.st342{fill:#91D9D9;}
	.st343{fill:#BFA94C;}
	.st344{fill:#D3BA53;}
	.st345{fill:#F0E182;}
	.st346{fill:#EDD458;}
	.st347{fill:#AB7E47;}
	.st348{fill:#886358;}
	.st349{fill:#E3B47A;}
	.st350{fill:#413D79;}
	.st351{fill:#B76180;}
	.st352{fill:none;stroke:#1C314E;stroke-width:8;stroke-linecap:round;stroke-miterlimit:10;}
	.st353{fill:#E08F8D;}
	.st354{fill:#CFA0B0;}
	.st355{fill:#DC809F;}
	.st356{fill:#CF5181;}
	.st357{fill:#6967BA;}
	.st358{fill:#BC537D;}
	.st359{fill:#C2DCF7;}
	.st360{fill:#B2CBE0;}
	.st361{fill:#A4BBC9;}
	.st362{fill:#9CB0BC;}
	.st363{fill:#99ACB7;}
	.st364{fill:#559562;}
	.st365{fill:#4D8556;}
	.st366{fill:#453D7F;}
	.st367{fill:#57529E;}
	.st368{fill:#B8863C;}
	.st369{fill:#DEA545;}
	.st370{fill:#C46682;}
	.st371{fill:#B1607F;}
	.st372{fill:#A15B7B;}
	.st373{fill:#75AAAA;}
	.st374{fill:#EBC4D5;}
	.st375{fill:#866358;}
	.st376{fill:#DE8D8B;}
	.st377{fill:#BA883C;}
	.st378{fill:#569762;}
	.st379{fill:#4E8756;}
	.st380{fill:#5752A0;}
	.st381{fill:#B36080;}
	.st382{fill:#EDC6D7;}
	.st383{fill:#D19AAA;}
	.st384{fill:#E7B5B5;}
	.st385{fill:#676795;}
	.st386{fill:#E3B469;}
	.st387{fill:#7673AD;}
</style>
<g id="BULINE">
	<circle id="XMLID_3105_" class="st0" cx="256" cy="256" r="256"/>
</g>
<g id="Icons">
	<g id="XMLID_2376_">
		<path id="XMLID_3012_" class="st255" d="M484.5,282.5c-1.6-4-2.7-8.1-2.7-11.9c0-1,0.1-2.1,0.2-3.1c2.1-15.8,19.1-33.4,15.3-47.8
			c-4.2-15.9-30.8-22.5-38.9-36.3c-8.2-14.1-0.7-40.4-12.1-51.8c-11.4-11.4-37.7-3.9-51.8-12.1c-13.9-8-20.5-34.6-36.3-38.9
			C343.8,76.7,326,94.1,310,95.9c-0.9,0.1-1.8,0.2-2.6,0.2c-10.5,0-21.9-7.8-32.7-12.5c-6.4-2.8-12.5-4.5-18.2-3
			c-7.1,1.9-12.3,8.2-17.1,15.4c-6,8.9-11.5,19.1-19.2,23.5c-1,0.6-2,1-3,1.5c-2.2,0.9-4.7,1.5-7.2,1.9c-0.6,0.1-1.2,0.2-1.8,0.3
			c-3.5,0.5-7.3,0.7-11,1c-11.1,0.6-22.3,1-28.8,7.5c-11.4,11.4-3.9,37.7-12.1,51.8c-4.8,8.2-16.1,13.9-25.4,20.5
			c-3.8,2.7-7.2,5.5-9.8,8.7c-1.7,2.2-3.1,4.5-3.7,7.2c-4.1,15.3,15.5,34.3,15.5,50.9c0,16.6-19.6,35.6-15.5,50.9
			c4.2,15.9,30.8,22.5,38.9,36.3c5.4,9.4,3.9,24.3,5.7,36.5c0,0.3,0.1,0.7,0.2,1c0.5,3.2,1.3,6.2,2.5,8.8c0.2,0.5,0.4,0.9,0.7,1.4
			c0.8,1.5,1.8,2.9,3,4.1c11.4,11.4,37.7,3.9,51.8,12.1c7.7,4.4,13.2,14.6,19.2,23.5c4.8,7.2,10.1,13.5,17.1,15.4
			c5.7,1.5,11.8-0.2,18.2-3c10.8-4.7,22.2-12.5,32.7-12.5c0.9,0,1.8,0.1,2.6,0.2c16,1.8,33.8,19.3,48.3,15.4
			c15.9-4.2,22.5-30.8,36.3-38.9c14.1-8.2,40.4-0.7,51.8-12.1c5.9-5.9,6.7-15.6,7.3-25.6c0.1-1,0.1-2.1,0.2-3.1
			c0.1-2.2,0.2-4.3,0.4-6.4c0-0.1,0-0.2,0-0.4c0.3-3.1,0.7-6.1,1.3-8.9c0.6-2.7,1.5-5.2,2.8-7.4c8-13.9,34.6-20.5,38.9-36.3
			C500.5,309.8,489.7,295.9,484.5,282.5z M266.4,117.8c-0.2,0.1-0.5,0.1-0.7,0.2C266,118,266.2,117.9,266.4,117.8
			c0.6-0.2,1.2-0.3,1.8-0.3C267.6,117.6,267,117.7,266.4,117.8z M348.3,117.8c0.3,0.1,0.6,0.2,0.9,0.3
			C348.9,118,348.6,117.9,348.3,117.8c-4-1.1-8.3-0.1-12.7,1.6C340,117.7,344.3,116.8,348.3,117.8z M333.1,120.5
			c-0.3,0.1-0.6,0.3-0.9,0.4c-0.1,0-0.2,0.1-0.2,0.1c0.1,0,0.1-0.1,0.2-0.1C332.5,120.7,332.8,120.6,333.1,120.5z M448.7,264.2
			C448.7,264.2,448.7,264.2,448.7,264.2c0.3-1.1,0.7-2.1,1.1-3.2C449.4,262,449,263.1,448.7,264.2z"/>
		<path id="XMLID_3006_" class="st256" d="M419.1,282.5c-1.6-4-2.7-8.1-2.7-11.9c0-1,0.1-2.1,0.2-3.1c2.1-15.8,19.1-33.4,15.3-47.8
			c-4.2-15.9-30.8-22.5-38.9-36.3c-8.2-14.1-0.7-40.4-12.1-51.8c-10.7-10.7-34.2-4.9-48.8-10.6l0,0c-1.1-0.4-2.1-0.9-3-1.5
			c-7.7-4.4-13.1-14.6-19.2-23.5c-0.9,0.1-1.8,0.2-2.6,0.2c-10.5,0-21.9-7.8-32.7-12.5c-10.8,4.7-22.3,12.5-32.7,12.5
			c-0.9,0-1.8-0.1-2.6-0.2c-6,8.9-11.5,19.1-19.2,23.5c-1,0.6-2,1-3,1.5c-2.2,0.9-4.7,1.5-7.2,1.9c-0.6,0.1-1.2,0.2-1.8,0.3
			c-3.5,0.5-7.3,0.7-11,1c-11.1,0.6-22.3,1-28.8,7.5c-11.4,11.4-3.9,37.7-12.1,51.8c-4.8,8.2-16.1,13.9-25.4,20.5
			c-3.8,2.7-7.2,5.5-9.8,8.7c-1.7,2.2-3.1,4.5-3.7,7.2c-4.1,15.3,15.5,34.3,15.5,50.9c0,16.6-19.6,35.6-15.5,50.9
			c4.2,15.9,30.8,22.5,38.9,36.3c5.4,9.4,3.9,24.3,5.7,36.5c0,0.3,0.1,0.7,0.2,1c0.5,3.2,1.3,6.2,2.5,8.8c0.2,0.5,0.4,0.9,0.7,1.4
			c0.8,1.5,1.8,2.9,3,4.1c11.4,11.4,37.7,3.9,51.8,12.1c7.7,4.4,13.2,14.6,19.2,23.5c0.9-0.1,1.8-0.2,2.6-0.2
			c10.5,0,21.9,7.8,32.7,12.5c10.8-4.7,22.2-12.5,32.7-12.5c0.9,0,1.8,0.1,2.6,0.2c6-8.9,11.5-19.1,19.2-23.5
			c14.1-8.2,40.4-0.7,51.8-12.1c5.9-5.9,6.7-15.6,7.3-25.6c0.1-1,0.1-2.1,0.2-3.1c0.1-2.2,0.2-4.3,0.4-6.4c0-0.1,0-0.2,0-0.4
			c0.3-3.1,0.7-6.1,1.3-8.9c0.6-2.7,1.5-5.2,2.8-7.4c8-13.9,34.6-20.5,38.9-36.3C435.1,309.8,424.3,295.9,419.1,282.5z M266.6,121
			c1.1-0.5,2.2-1,3.3-1.4C268.8,120,267.7,120.5,266.6,121z M282.9,117.8c-0.6-0.2-1.2-0.3-1.8-0.3
			C281.7,117.6,282.3,117.7,282.9,117.8c0.3,0.1,0.6,0.2,0.9,0.3C283.5,118,283.2,117.9,282.9,117.8z M383.3,264.2
			C383.3,264.2,383.3,264.2,383.3,264.2c0.3-0.9,0.6-1.8,0.9-2.8C383.8,262.3,383.5,263.3,383.3,264.2z"/>
		<circle id="XMLID_3005_" class="st53" cx="328.4" cy="118.3" r="8.9"/>
		<circle id="XMLID_3004_" class="st53" cx="250.2" cy="74" r="8.9"/>
		<circle id="XMLID_3003_" class="st53" cx="375" cy="199.9" r="8.9"/>
		<circle id="XMLID_3002_" class="st53" cx="375" cy="289.1" r="8.9"/>
		<circle id="XMLID_3001_" class="st53" cx="160.3" cy="74" r="8.9"/>
		<path id="XMLID_2993_" class="st198" d="M382.8,255.3c-1.6-4-2.7-8.1-2.7-11.9c0-1,0.1-2.1,0.2-3.1c2.1-15.8,19.1-33.4,15.3-47.8
			c-4.2-15.9-30.8-22.5-38.9-36.3c-8.2-14.1-0.7-40.4-12.1-51.8c-11.4-11.4-37.7-3.9-51.8-12.1c-13.9-8-20.5-34.6-36.3-38.9
			c-15.3-4.1-34.3,15.5-50.9,15.5c-16.6,0-35.6-19.6-50.9-15.5c-15.9,4.2-22.5,30.8-36.3,38.9c-3,1.7-6.5,2.7-10.3,3.4
			c0.5,1.3,1.1,2.7,1.7,4c3,7.3,6.5,15.2,10.4,23.6c0.3,0.7,0.6,1.3,0.9,2c0.3,0,0.7-0.1,1-0.1c3.8-0.3,7.5-0.9,10.6-2.1
			c1-0.4,1.9-0.8,2.8-1.3c11.2-6.5,16.5-27.8,29.2-31.3c12.3-3.3,27.6,12.5,40.9,12.5c13.4,0,28.6-15.8,40.9-12.5
			c12.8,3.4,18.1,24.8,29.2,31.3c11.3,6.5,32.5,0.5,41.7,9.7c9.2,9.2,3.2,30.3,9.7,41.7c6.5,11.2,27.8,16.5,31.2,29.2
			c2.8,10.4-8,22.9-11.4,34.5c-0.7,2.2-1,4.3-1,6.4c0,0.8,0.1,1.7,0.2,2.5c0.3,2.3,1,4.7,2,7.1c1.1,2.8,2.5,5.6,3.9,8.4
			c4,8,8.3,16,6.5,23c-3.4,12.8-24.8,18.1-31.2,29.2c-3.8,6.5-3.4,16.2-4.1,25.1c-0.1,0.9-0.2,1.8-0.3,2.6c4.4,2.1,9,4.2,13.6,6.2
			c2.3,1,4.6,2,7,2.9c2.9,1.2,5.9,2.3,8.8,3.4c0.1-2.2,0.2-4.3,0.4-6.4c0-0.1,0-0.2,0-0.4c0.3-3.1,0.7-6.1,1.3-8.9
			c0.6-2.7,1.5-5.2,2.8-7.4c8-13.9,34.6-20.5,38.9-36.3C398.8,282.6,388,268.7,382.8,255.3z M160.3,82.8c-4.9,0-8.9-4-8.9-8.9
			c0-4.9,4-8.9,8.9-8.9s8.9,4,8.9,8.9C169.2,78.9,165.2,82.8,160.3,82.8z M250.2,82.8c-4.9,0-8.9-4-8.9-8.9c0-4.9,4-8.9,8.9-8.9
			s8.9,4,8.9,8.9C259.1,78.9,255.1,82.8,250.2,82.8z M328.4,127.2c-4.9,0-8.9-4-8.9-8.9c0-4.9,4-8.9,8.9-8.9s8.9,4,8.9,8.9
			C337.3,123.2,333.3,127.2,328.4,127.2z M375,191c4.9,0,8.9,4,8.9,8.9c0,4.9-4,8.9-8.9,8.9s-8.9-4-8.9-8.9
			C366.1,194.9,370.1,191,375,191z M375,298c-4.9,0-8.9-4-8.9-8.9c0-4.9,4-8.9,8.9-8.9s8.9,4,8.9,8.9C383.8,294,379.9,298,375,298z"
			/>
		<path id="XMLID_2992_" class="st257" d="M142.7,162.2c3-0.4,6-0.6,9.1-0.6c16.5,0,33.1,6.3,45.7,18.9c4.5,4.5,11.9,4.5,16.4,0
			c12.6-12.6,29.1-18.9,45.7-18.9s33,6.3,45.7,18.9c25.2,25.2,25.2,66.1,0,91.3l-37.1,37.1c16.8,12,35,23,54.7,32.4
			c1.1-9.5,0.2-20.6,4.4-27.7c6.5-11.2,27.8-16.5,31.3-29.2c3.3-12.3-12.5-27.6-12.5-40.9c0-13.4,15.8-28.6,12.5-40.9
			c-3.4-12.7-24.8-18.1-31.3-29.2c-6.6-11.3-0.5-32.5-9.7-41.7c-9.2-9.2-30.3-3.2-41.7-9.7c-11.2-6.5-16.5-27.8-29.2-31.3
			c-12.3-3.3-27.6,12.5-40.9,12.5c-13.4,0-28.6-15.8-40.9-12.5c-12.7,3.4-18.1,24.8-29.2,31.3c-3.9,2.3-9,3-14.4,3.4
			c5.5,11.6,11.9,24.2,19.3,37.2C141.1,162.4,141.9,162.3,142.7,162.2z"/>
		<path id="XMLID_2991_" class="st238" d="M305.2,180.4c-12.6-12.6-29.1-18.9-45.7-18.9s-33.1,6.3-45.7,18.9
			c-4.5,4.5-11.9,4.5-16.4,0c-12.6-12.6-29.1-18.9-45.7-18.9c-3,0-6.1,0.2-9.1,0.6c-0.8,0.1-1.6,0.2-2.3,0.4
			C167.8,211,209,266.4,268.1,308.8l37.1-37.1C330.4,246.5,330.4,205.7,305.2,180.4z"/>
		<circle id="XMLID_2990_" class="st16" cx="35.6" cy="289.1" r="8.9"/>
		<circle id="XMLID_2989_" class="st16" cx="84.4" cy="122.2" r="8.9"/>
		<path id="XMLID_2988_" class="st16" d="M37.1,205.8C37.2,205.8,37.2,205.8,37.1,205.8c0.3-0.1,0.6-0.1,0.8-0.2c0,0,0,0,0,0
			c0.2-0.1,0.5-0.1,0.7-0.2c0.1,0,0.1,0,0.2-0.1c0.2-0.1,0.4-0.2,0.6-0.3c0.5-0.3,1-0.6,1.5-0.9c0.2-0.2,0.4-0.3,0.6-0.5
			c0,0,0.1,0,0.1-0.1c0.2-0.1,0.3-0.3,0.5-0.5c0.2-0.2,0.4-0.4,0.6-0.6L37.1,205.8z"/>
		<circle id="XMLID_2987_" class="st16" cx="160.3" cy="415.6" r="8.9"/>
		<circle id="XMLID_2986_" class="st16" cx="82.1" cy="367" r="8.9"/>
		<path id="XMLID_2985_" class="st257" d="M84.1,173.3c-6.5,11.2-27.8,16.5-31.3,29.2c-3.3,12.3,12.5,27.6,12.5,40.9
			c0,13.4-15.8,28.6-12.5,40.9c3.4,12.7,24.8,18.1,31.3,29.2c6.6,11.3,0.5,32.5,9.7,41.7c9.2,9.2,30.3,3.2,41.7,9.7
			c11.2,6.5,16.5,27.8,29.2,31.3c12.3,3.3,27.6-12.5,40.9-12.5c13.4,0,28.6,15.8,40.9,12.5c12.7-3.4,18.1-24.8,29.2-31.3
			c11.3-6.6,32.5-0.5,41.7-9.7c3.4-3.4,4.7-8.4,5.3-14c-19.7-9.5-38-20.4-54.7-32.4l-3.1,3.1l-40.8,40.9
			c-10.2,10.2-26.8,10.2-37.1,0l-81-81c-12.6-12.6-18.9-29.1-18.9-45.7c0-16.5,6.3-33.1,18.9-45.7c9.7-9.7,21.7-15.7,34.3-17.9
			c-7.4-13-13.8-25.6-19.3-37.2c-10.1,0.8-21.3,0.3-27.3,6.3C84.6,140.8,90.7,161.9,84.1,173.3z"/>
		
			<ellipse id="XMLID_2984_" transform="matrix(0.7741 -0.6331 0.6331 0.7741 -63.4735 228.6835)" class="st241" cx="288.7" cy="203.3" rx="12.3" ry="15.3"/>
		<circle id="XMLID_2983_" class="st53" cx="35.6" cy="289.1" r="8.9"/>
		<path id="XMLID_2982_" class="st53" d="M82.1,358.1c-4.9,0-8.9,4-8.9,8.9c0,1.2,0.2,2.4,0.7,3.4c1.3,3.2,4.5,5.5,8.2,5.5
			c2.5,0,4.7-1,6.4-2.7c1.6-1.6,2.5-3.8,2.5-6.2C91,362.1,87,358.1,82.1,358.1z"/>
		<path id="XMLID_2981_" class="st53" d="M37.9,205.6C37.9,205.6,37.9,205.6,37.9,205.6c0.2-0.1,0.5-0.1,0.7-0.2
			c0.1,0,0.1,0,0.2-0.1c0.2-0.1,0.4-0.2,0.6-0.3c0.5-0.3,1-0.6,1.5-0.9c0.2-0.2,0.4-0.3,0.6-0.5c0,0,0.1,0,0.1-0.1
			c0.2-0.1,0.3-0.3,0.5-0.5c0.2-0.2,0.4-0.4,0.6-0.6c0,0,0,0,0,0c0.1-0.2,0.2-0.3,0.3-0.5c0,0,0.1-0.1,0.1-0.2
			c0.1-0.1,0.2-0.3,0.3-0.5c0,0,0-0.1,0.1-0.1c0.1-0.2,0.2-0.4,0.3-0.6c0.1-0.2,0.2-0.4,0.2-0.6c0-0.1,0.1-0.1,0.1-0.2
			c0.1-0.2,0.1-0.4,0.2-0.6c0,0,0,0,0,0c0.1-0.2,0.1-0.5,0.1-0.7c0-0.2,0.1-0.5,0.1-0.7v0c0-0.2,0-0.5,0-0.7c0-4.9-4-8.9-8.9-8.9
			s-8.9,4-8.9,8.9c0,4.9,4,8.9,8.9,8.9c0.2,0,0.5,0,0.7,0c0.3,0,0.6-0.1,0.8-0.1c0,0,0.1,0,0.1,0C37.5,205.8,37.7,205.7,37.9,205.6z
			"/>
		<circle id="XMLID_2980_" class="st53" cx="84.4" cy="122.2" r="8.9"/>
		<path id="XMLID_2979_" class="st53" d="M106.1,180.4c9.7-9.7,21.7-15.7,34.3-17.9c17.6,31.1,40.9,65.1,70.9,96.6
			c17.2,1.6,33.7,2.1,49,1.9c32.9-0.4,63.3-4,87.7-8.1c8.6-1.4,16.5-2.9,23.4-4.3c-8.5-0.6-16.9-1.5-25.4-2.8
			c-25.9-3.9-51.7-11-77.1-21.3c-36.2-14.7-71.8-35.8-105.7-62.8c-15.5-12.4-29.3-24.9-41.2-36.6c-0.7-0.6-1.3-1.3-1.9-1.9
			c0.3,0.7,0.6,1.3,0.9,2c-10.1,0.8-21.3,0.3-27.3,6.3c-9.2,9.2-3.2,30.3-9.7,41.7c-6.1,10.5-25.4,15.8-30.5,27
			c10.7,8.8,21.9,16.3,33.6,22.8C88,207.6,94.3,192.3,106.1,180.4z"/>
		<path id="XMLID_2978_" class="st53" d="M187.1,352.7l-34.7-34.7c-30-12.3-55.9-28.2-77.3-47.8c-4.9-4.5-9.4-9-13.6-13.5
			c-4.4,9.5-10.9,19.2-8.7,27.5c3.4,12.8,24.8,18.1,31.3,29.2c6.5,11.3,0.5,32.5,9.7,41.7c9.2,9.2,30.3,3.2,41.7,9.7
			c4.8,2.8,8.6,8.4,12.3,14.1c42.2,1.3,81.8-3.1,113.9-8.8c3.3-0.6,6.5-1.2,9.7-1.8c1.4-1.4,2.8-2.6,4.4-3.5
			c11.3-6.6,32.5-0.5,41.7-9.7c2.1-2.1,3.3-4.7,4.2-7.7c-30.4-0.2-59-2.4-85.6-6.7l-11.9,11.9C213.9,363,197.3,363,187.1,352.7z"/>
		<path id="XMLID_2977_" class="st53" d="M154.1,388.2c3.1,3.8,6.4,6.9,10.6,8c8.4,2.2,18.1-4.3,27.7-8.8c-10.1,0.6-20,0.9-29.8,0.9
			C159.7,388.3,156.9,388.2,154.1,388.2z"/>
		<path id="XMLID_2976_" class="st53" d="M81.6,264.2c13.3,12,30.5,24.5,52.6,35.7l-28.1-28.1c-10.7-10.7-16.8-24.2-18.5-38.1
			c-12.3-6.6-23.8-14-34.5-22.3c2.8,10.3,12.2,21.8,12.2,32c0,1.3-0.1,2.6-0.4,3.9C69.9,252.9,75.4,258.6,81.6,264.2z"/>
		<path id="XMLID_2975_" class="st53" d="M214.8,385.7c10.8,4.1,22.2,13.1,31.8,10.5c7.3-1.9,12.1-9.7,17-17.2c-0.1,0-0.2,0-0.3,0.1
			C246.9,381.9,230.7,384.1,214.8,385.7z"/>
		<path id="XMLID_2974_" class="st53" d="M333.6,375.9c4.9,0,8.9-4,8.9-8.9c0-2.5-1-4.7-2.7-6.4c-1.6-1.6-3.8-2.5-6.2-2.5
			c-4.2,0-7.7,2.9-8.6,6.8c-0.2,0.7-0.2,1.4-0.2,2.1C324.8,371.9,328.7,375.9,333.6,375.9z"/>
		<circle id="XMLID_2973_" class="st53" cx="253.5" cy="415.6" r="8.9"/>
		<circle id="XMLID_2972_" class="st53" cx="160.3" cy="415.6" r="8.9"/>
		<path id="XMLID_2969_" class="st198" d="M73.3,367c0-4.9,4-8.9,8.9-8.9c4.9,0,8.9,4,8.9,8.9c0,2.4-1,4.6-2.5,6.2
			c20,3.4,39.9,5.2,59.3,5.8c-3.7-5.7-7.5-11.3-12.3-14.1c-11.3-6.6-32.5-0.5-41.7-9.7c-9.2-9.2-3.2-30.3-9.7-41.7
			c-6.5-11.2-27.8-16.5-31.3-29.2c-2.2-8.3,4.3-18,8.7-27.5C34.9,228,23.7,200,19.3,185.3c-1.7,2.2-3.1,4.5-3.7,7.2
			c-4.1,15.3,15.5,34.3,15.5,50.9c0,16.6-19.6,35.6-15.5,50.9c4.2,15.9,30.8,22.5,38.9,36.3c5.4,9.4,3.9,24.3,5.7,36.5
			c0,0.3,0.1,0.7,0.2,1c4.9,0.8,10.6,1.5,13.6,2.2C73.5,369.4,73.3,368.2,73.3,367z M35.6,298c-4.9,0-8.9-4-8.9-8.9
			c0-4.9,4-8.9,8.9-8.9s8.9,4,8.9,8.9C44.4,294,40.5,298,35.6,298z"/>
		<path id="XMLID_2968_" class="st258" d="M321.6,347.5c-0.9,3-2.1,5.7-4.2,7.7c-9.2,9.2-30.3,3.2-41.7,9.7c-1.6,0.9-3,2.1-4.4,3.5
			c28.4-5.5,53.2-12.3,72-18.1c-2.4-0.9-4.7-1.9-7-2.9C331.4,347.5,326.5,347.5,321.6,347.5z"/>
		<path id="XMLID_2967_" class="st258" d="M53.2,211.4c-3.6-2.8-7.2-5.8-10.6-8.8c-0.2,0.2-0.4,0.4-0.6,0.6
			c-0.1,0.2-0.3,0.3-0.5,0.5c0,0,0,0-0.1,0.1c-0.2,0.2-0.4,0.3-0.6,0.5c-0.5,0.3-0.9,0.6-1.5,0.9c-0.2,0.1-0.4,0.2-0.6,0.3
			c-0.1,0-0.1,0-0.2,0.1c-0.2,0.1-0.4,0.2-0.7,0.2c0,0,0,0,0,0c-0.2,0.1-0.5,0.1-0.7,0.2c0,0-0.1,0-0.1,0
			c6,12.2,14.8,26.6,27.8,41.5c0.3-1.3,0.4-2.6,0.4-3.9C65.4,233.1,56,221.7,53.2,211.4z"/>
		<path id="XMLID_2962_" class="st198" d="M339.8,360.7C339.9,360.7,339.9,360.7,339.8,360.7c0.3,0.3,0.4,0.4,0.6,0.6
			c0,0,0,0.1,0.1,0.1c0.2,0.2,0.3,0.4,0.5,0.6c0.2,0.2,0.3,0.5,0.5,0.7c0,0,0,0,0,0.1c0.1,0.2,0.2,0.5,0.3,0.7
			c0.1,0.3,0.2,0.5,0.3,0.8c0.1,0.3,0.2,0.6,0.2,0.9c0,0.1,0,0.2,0.1,0.3c0.1,0.5,0.1,1,0.1,1.5c0,4.9-4,8.9-8.9,8.9
			c-4.9,0-8.9-4-8.9-8.9c0-0.7,0.1-1.4,0.2-2.1c-17.7,4.9-38.5,9.9-61.4,14c-4.9,7.5-9.7,15.3-17,17.2c-9.6,2.6-20.9-6.4-31.8-10.5
			c-7.5,0.8-15,1.3-22.4,1.7c-9.6,4.4-19.3,11-27.7,8.8c-4.2-1.1-7.6-4.2-10.6-8c-3.6-0.1-7.2-0.2-10.7-0.3
			c-25.7-1-55.6-4.3-79.8-9.5c0.8,1.5,1.8,2.9,3,4.1c11.4,11.4,37.7,3.9,51.8,12.1c13.9,8,20.5,34.6,36.3,38.9
			c15.3,4.1,34.3-15.5,50.9-15.5c16.6,0,35.6,19.6,50.9,15.5c15.9-4.2,22.5-30.8,36.3-38.9c14.1-8.2,40.4-0.7,51.8-12.1
			c5.9-5.8,6.7-15.6,7.3-25.6C348.2,358.1,344.2,359.4,339.8,360.7z M160.3,424.5c-4.9,0-8.9-4-8.9-8.9c0-4.9,4-8.9,8.9-8.9
			s8.9,4,8.9,8.9C169.2,420.5,165.2,424.5,160.3,424.5z M253.5,424.5c-4.9,0-8.9-4-8.9-8.9c0-4.9,4-8.9,8.9-8.9s8.9,4,8.9,8.9
			C262.4,420.5,258.4,424.5,253.5,424.5z"/>
		<path id="XMLID_2961_" class="st258" d="M108.1,95.6c-0.6,0.1-1.2,0.2-1.8,0.3c1.1,1.2,2.2,2.5,3.4,3.8
			C109.2,98.3,108.6,96.9,108.1,95.6z"/>
		<path id="XMLID_2387_" class="st198" d="M53.6,200.3c5.1-11.2,24.4-16.5,30.5-27c6.5-11.3,0.5-32.5,9.7-41.7
			c6-6,17.1-5.5,27.3-6.3c-0.3-0.7-0.6-1.3-0.9-2c-9.7-9.6-18-18.6-24.8-26.5c-11.1,0.6-22.3,1-28.8,7.5
			c-11.4,11.4-3.9,37.7-12.1,51.8c-4.8,8.2-16.1,13.9-25.4,20.5C36.8,185.3,45,193.2,53.6,200.3z M84.4,113.3c4.9,0,8.9,4,8.9,8.9
			c0,4.9-4,8.9-8.9,8.9c-4.9,0-8.9-4-8.9-8.9C75.5,117.3,79.5,113.3,84.4,113.3z"/>
		<path id="XMLID_2386_" class="st240" d="M106.1,180.4c-11.9,11.9-18.1,27.2-18.8,42.7c39.4,22,83.4,32.2,124,36
			c-30-31.6-53.3-65.5-70.9-96.6C127.8,164.8,115.8,170.7,106.1,180.4z"/>
		<path id="XMLID_2385_" class="st240" d="M152.4,318.1l34.7,34.7c10.2,10.2,26.8,10.2,37.1,0l11.9-11.9c-17.6-2.8-34.3-6.5-50-11.1
			C174.3,326.4,163.1,322.4,152.4,318.1z"/>
		<path id="XMLID_2384_" class="st240" d="M87.7,233.6c1.6,13.9,7.8,27.4,18.5,38.1l28.1,28.1c28,14.2,63.9,26.3,109.7,33.1
			l21.1-21.1l3.1-3.1c-17.3-12.4-33-25.9-47.3-40c-32-2.2-61.7-7.7-88.5-16.4C116.4,247.4,101.5,241.1,87.7,233.6z"/>
		<path id="XMLID_2383_" class="st259" d="M352.6,347.4c-2.9,1-6,1.9-9.3,3c2.9,1.2,5.9,2.3,8.8,3.4
			C352.3,351.6,352.4,349.5,352.6,347.4z"/>
		<path id="XMLID_2382_" class="st259" d="M192.4,387.4c7.4-0.4,14.9-1,22.4-1.7c-3.1-1.2-6.2-2-9.2-2
			C201.4,383.7,196.9,385.3,192.4,387.4z"/>
		<path id="XMLID_2381_" class="st259" d="M122.1,125.2c11.8,11.7,25.6,24.2,41.2,36.6c33.9,27,69.5,48.1,105.7,62.8
			c25.4,10.3,51.2,17.4,77.1,21.3c8.5,1.3,16.9,2.2,25.4,2.8c-7,1.4-14.8,2.9-23.4,4.3c-24.5,4.1-54.9,7.6-87.7,8.1
			c-15.3,0.2-31.9-0.3-49-1.9c3.1,3.3,6.3,6.5,9.5,9.7c12.9,0.9,26.2,1.3,39.8,1.1c34.3-0.5,66.1-4.3,91.3-8.6
			c11.9-2,22.3-4.1,30.9-6c-1.6-4-2.7-8.1-2.7-11.9c0-1,0.1-2.1,0.2-3.1c-11.4-0.5-22.6-1.6-33.4-3.3c-75-11.5-136.5-48.9-178-82
			c-13.5-10.7-25.6-21.6-36.3-31.9c-8.6-8.3-16.3-16.3-22.9-23.5c3,7.3,6.5,15.2,10.4,23.6C120.8,123.9,121.4,124.6,122.1,125.2z"/>
		<path id="XMLID_2380_" class="st260" d="M109.8,99.7c-1.2-1.3-2.3-2.6-3.4-3.8c-3.5,0.5-7.3,0.7-11,1c6.9,7.9,15.2,16.9,24.8,26.5
			C116.2,114.9,112.8,107,109.8,99.7z"/>
		<g id="XMLID_2377_">
			<path id="XMLID_2379_" class="st260" d="M271.4,368.5c-3.2,0.6-6.4,1.2-9.7,1.8c-32.1,5.7-71.6,10.1-113.9,8.8
				c-19.4-0.6-39.3-2.4-59.3-5.8c-1.6,1.7-3.9,2.7-6.4,2.7c-3.7,0-6.9-2.3-8.2-5.5c-3-0.6-8.7-1.4-13.6-2.2c0.5,3.2,1.3,6.2,2.5,8.8
				c0.2,0.5,0.4,0.9,0.7,1.4c24.3,5.2,54.1,8.5,79.8,9.5c3.5,0.1,7.1,0.2,10.7,0.3c2.8,0.1,5.6,0.1,8.5,0.1c9.8,0,19.7-0.3,29.8-0.9
				c4.5-2.1,9-3.7,13.3-3.7c3,0,6.1,0.8,9.2,2c15.9-1.5,32.1-3.8,48.4-6.7c0.1,0,0.2,0,0.3-0.1c22.9-4.1,43.7-9.1,61.4-14
				c0.9-3.9,4.4-6.8,8.6-6.8c2.4,0,4.6,1,6.2,2.5c4.3-1.3,8.4-2.6,12.2-3.8c0.1-1,0.1-2.1,0.2-3.1c-3-1.1-5.9-2.3-8.8-3.4
				C324.5,356.2,299.8,362.9,271.4,368.5z"/>
			<path id="XMLID_2378_" class="st260" d="M323.1,338.6c-29.2-0.1-55.5-2.2-79.1-5.7c-45.8-6.8-81.7-18.9-109.7-33.1
				c-22.2-11.2-39.4-23.7-52.6-35.7c-6.2-5.6-11.7-11.3-16.6-16.9c-13-14.8-21.9-29.3-27.8-41.5c-0.3,0-0.6,0.1-0.8,0.1
				c-0.2,0-0.5,0-0.7,0c-4.9,0-8.9-4-8.9-8.9c0-4.9,4-8.9,8.9-8.9s8.9,4,8.9,8.9c0,0.3,0,0.5,0,0.7v0c0,0.2-0.1,0.5-0.1,0.7
				c0,0.2-0.1,0.5-0.1,0.7c0,0,0,0,0,0c-0.1,0.2-0.1,0.4-0.2,0.6c0,0.1,0,0.2-0.1,0.2c-0.1,0.2-0.1,0.4-0.2,0.6
				c-0.1,0.2-0.2,0.4-0.3,0.6c0,0,0,0.1-0.1,0.1c-0.1,0.2-0.2,0.3-0.3,0.5c0,0.1-0.1,0.1-0.1,0.2c-0.1,0.2-0.2,0.3-0.3,0.5
				c0,0,0,0,0,0c3.4,3.1,7,6,10.6,8.8c10.7,8.3,22.2,15.7,34.5,22.3c13.9,7.4,28.8,13.7,44.7,18.9c26.8,8.7,56.5,14.2,88.5,16.4
				c-3.3-3.2-6.4-6.5-9.5-9.7c-40.6-3.8-84.6-14-124-36c-11.7-6.5-23-14.1-33.6-22.8c-8.6-7.1-16.8-15-24.5-23.7
				c-3.8,2.7-7.2,5.5-9.8,8.7c4.4,14.7,15.6,42.6,42.2,71.5c4.1,4.5,8.7,9,13.6,13.5c21.4,19.5,47.3,35.5,77.3,47.8
				c10.7,4.4,21.9,8.3,33.6,11.7c15.8,4.6,32.5,8.3,50,11.1c26.6,4.3,55.1,6.5,85.6,6.7c4.9,0,9.8,0,14.7-0.1
				c5.4-0.1,10.8-0.2,16.3-0.4c0.3-3.1,0.7-6.1,1.3-8.9C343.4,338.5,333,338.7,323.1,338.6z"/>
		</g>
	</g>
</g>
</svg>
