<svg xmlns="http://www.w3.org/2000/svg" viewBox="0 0 512 512"><defs><style>.cls-1{fill:#3586cb;}.cls-2{fill:#fefffd;}.cls-3{fill:#9bbc51;}.cls-4{fill:#b0d46c;}.cls-5{fill:#cde598;}.cls-6{fill:#db1b1b;}.cls-7{fill:#bc1919;}.cls-8{fill:#991616;}.cls-9{fill:#f55b4b;}.cls-10{fill:#e55555;}.cls-11{fill:#32314b;}.cls-12{fill:#27273d;}.cls-13{fill:#4f4f74;}.cls-14{fill:#3e436d;}</style></defs><title>English Food</title><g id="BULINE"><circle class="cls-1" cx="256" cy="256" r="256"/></g><g id="Icons"><path class="cls-2" d="M487.31,365.81C446.21,452.25,358.08,512,256,512S65.79,452.25,24.69,365.81H487.31Z"/><ellipse class="cls-3" cx="178.18" cy="98.25" rx="23.79" ry="49.46" transform="translate(-21.56 137.02) rotate(-39.86)"/><ellipse class="cls-4" cx="212.49" cy="71.63" rx="23.79" ry="49.46" transform="translate(-4.8 16.24) rotate(-4.33)"/><ellipse class="cls-5" cx="331.29" cy="111.78" rx="42.03" ry="20.22" transform="translate(19.16 269.33) rotate(-45.43)"/><path class="cls-6" d="M449.83,363.66a13.5,13.5,0,0,1-13.5,13.5H73.81a13.5,13.5,0,0,1,0-27h7.82L87,325.84l34.38-156.18a54.74,54.74,0,0,1,53.51-43H335.26a54.76,54.76,0,0,1,53.52,43l34.38,156.18,5.35,24.32h7.82a13.49,13.49,0,0,1,13.5,13.5Z"/><path class="cls-7" d="M230,126.64a54.75,54.75,0,0,0-53.51,43L142.09,325.85l-5.35,24.31h-7.82a13.51,13.51,0,0,0,0,27H73.81a13.51,13.51,0,0,1,0-27h7.82L87,325.85l34.38-156.18a54.75,54.75,0,0,1,53.51-43Z"/><polygon class="cls-7" points="428.51 350.16 81.63 350.16 86.98 325.85 423.16 325.85 428.51 350.16"/><path class="cls-8" d="M350.65,377.16H150.85a53.89,53.89,0,0,1,16.36-36.05A59.84,59.84,0,0,0,184.43,307l19.16-126.89A19.57,19.57,0,0,1,223,163.41H287.2a19.58,19.58,0,0,1,19.36,16.66L327.8,320.78a98.1,98.1,0,0,0,15.44,39.28A54,54,0,0,1,350.65,377.16Z"/><circle class="cls-9" cx="380.78" cy="255.34" r="17.84"/><circle class="cls-9" cx="368.95" cy="220.1" r="12.64"/><path class="cls-6" d="M299.93,208.73c5.36-13-2.56-28.59-17.69-34.83s-31.74-.75-37.1,12.25-5.23,47.49,9.9,53.73S294.57,221.73,299.93,208.73Z"/><ellipse class="cls-10" cx="268.28" cy="207.77" rx="28.93" ry="7.7" transform="translate(-26.05 376.63) rotate(-67.6)"/><ellipse class="cls-10" cx="291.57" cy="195.86" rx="1.83" ry="6.88" transform="translate(-0.62 390.78) rotate(-67.6)"/><ellipse class="cls-10" cx="288.58" cy="203.11" rx="1.83" ry="6.88" transform="translate(-9.18 392.51) rotate(-67.6)"/><ellipse class="cls-10" cx="285.58" cy="210.37" rx="1.83" ry="6.88" transform="translate(-17.75 394.24) rotate(-67.6)"/><ellipse class="cls-10" cx="281.64" cy="217.24" rx="1.83" ry="5.85" transform="translate(-26.53 394.83) rotate(-67.6)"/><ellipse class="cls-10" cx="277.86" cy="224.17" rx="1.83" ry="5" transform="translate(-35.28 395.64) rotate(-67.6)"/><ellipse class="cls-10" cx="271.64" cy="230.92" rx="1.83" ry="3.81" transform="translate(-84.22 252.74) rotate(-43.88)"/><ellipse class="cls-10" cx="265.09" cy="235.43" rx="1.83" ry="2.52" transform="translate(-89.18 249.46) rotate(-43.88)"/><ellipse class="cls-10" cx="260.26" cy="182.95" rx="1.83" ry="6.88" transform="matrix(0.38, -0.92, 0.92, 0.38, -8.07, 353.85)"/><ellipse class="cls-10" cx="257.27" cy="190.21" rx="1.83" ry="6.88" transform="translate(-16.63 355.58) rotate(-67.6)"/><ellipse class="cls-10" cx="254.28" cy="197.47" rx="1.83" ry="6.88" transform="matrix(0.38, -0.92, 0.92, 0.38, -25.19, 357.3)"/><ellipse class="cls-10" cx="252.24" cy="205.12" rx="1.83" ry="5.85" transform="translate(-33.53 360.16) rotate(-67.6)"/><ellipse class="cls-10" cx="250.03" cy="212.7" rx="1.83" ry="5" transform="translate(-41.9 362.81) rotate(-67.6)"/><ellipse class="cls-10" cx="249.69" cy="221.87" rx="3.81" ry="1.83" transform="translate(-5.05 5.82) rotate(-1.32)"/><ellipse class="cls-10" cx="251.16" cy="229.69" rx="2.52" ry="1.83" transform="translate(-5.23 5.85) rotate(-1.32)"/><path class="cls-6" d="M221.71,368.87c13.49,3.95,28.16-5.58,32.77-21.28S251.87,316,238.37,312s-47.78-.18-52.38,15.52S208.22,364.91,221.71,368.87Z"/><ellipse class="cls-10" cx="219.32" cy="337.29" rx="7.7" ry="28.93" transform="translate(-166.03 452.91) rotate(-73.67)"/><ellipse class="cls-10" cx="233.63" cy="359.19" rx="6.88" ry="1.83" transform="translate(-176.76 482.39) rotate(-73.67)"/><ellipse class="cls-10" cx="226.1" cy="356.98" rx="6.88" ry="1.83" transform="translate(-180.06 473.57) rotate(-73.67)"/><ellipse class="cls-10" cx="218.56" cy="354.77" rx="6.88" ry="1.83" transform="translate(-183.36 464.76) rotate(-73.67)"/><ellipse class="cls-10" cx="211.32" cy="351.57" rx="5.85" ry="1.83" transform="translate(-185.49 455.51) rotate(-73.67)"/><ellipse class="cls-10" cx="204.03" cy="348.55" rx="5" ry="1.83" transform="matrix(0.28, -0.96, 0.96, 0.28, -187.83, 446.33)"/><ellipse class="cls-10" cx="196.65" cy="343.08" rx="3.81" ry="1.83" transform="translate(-192.5 272.83) rotate(-49.95)"/><ellipse class="cls-10" cx="191.48" cy="337.04" rx="2.52" ry="1.83" transform="translate(-189.72 266.72) rotate(-49.95)"/><ellipse class="cls-10" cx="243.15" cy="326.69" rx="6.88" ry="1.83" transform="matrix(0.28, -0.96, 0.96, 0.28, -138.73, 468.17)"/><ellipse class="cls-10" cx="235.62" cy="324.48" rx="6.88" ry="1.83" transform="translate(-142.03 459.35) rotate(-73.67)"/><ellipse class="cls-10" cx="228.09" cy="322.28" rx="6.88" ry="1.83" transform="translate(-145.32 450.54) rotate(-73.67)"/><ellipse class="cls-10" cx="220.26" cy="321.06" rx="5.85" ry="1.83" transform="translate(-149.78 442.15) rotate(-73.67)"/><ellipse class="cls-10" cx="212.49" cy="319.67" rx="5" ry="1.83" transform="matrix(0.28, -0.96, 0.96, 0.28, -154.03, 433.69)"/><ellipse class="cls-10" cx="203.33" cy="320.29" rx="1.83" ry="3.81" transform="translate(-39.51 28.82) rotate(-7.39)"/><ellipse class="cls-10" cx="195.71" cy="322.59" rx="1.83" ry="2.52" transform="translate(-39.87 27.85) rotate(-7.39)"/><circle class="cls-11" cx="224.29" cy="190.21" r="21.07"/><path class="cls-12" d="M229.44,210.64a20.82,20.82,0,0,1-5.15.64,21.07,21.07,0,0,1,0-42.14,20.82,20.82,0,0,1,5.15.64,21.07,21.07,0,0,0,0,40.86Z"/><circle class="cls-11" cx="299.81" cy="348.31" r="21.07"/><path class="cls-12" d="M305,368.74a20.82,20.82,0,0,1-5.15.63,21.07,21.07,0,1,1,0-42.13,20.82,20.82,0,0,1,5.15.64,21.07,21.07,0,0,0,0,40.86Z"/><circle class="cls-11" cx="293.13" cy="255.34" r="21.07"/><path class="cls-12" d="M298.28,275.77a20.76,20.76,0,0,1-5.15.64,21.07,21.07,0,0,1,0-42.13,20.76,20.76,0,0,1,5.15.63,21.07,21.07,0,0,0,0,40.86Z"/><path class="cls-13" d="M184.09,100.09A39.79,39.79,0,1,0,261,79.7c-5.64-21.25-23.32-26-44.56-20.38S178.45,78.85,184.09,100.09Z"/><path class="cls-14" d="M240.29,125.63A39.82,39.82,0,0,1,184.55,100c-5.63-21.25,11.13-35.15,32.37-40.78a71.89,71.89,0,0,1,7.28-1.54c-17.62,6.67-30.12,19.7-25.14,38.47A39.79,39.79,0,0,0,240.29,125.63Z"/><ellipse class="cls-11" cx="217.71" cy="71.63" rx="14.73" ry="6.11" transform="matrix(0.97, -0.26, 0.26, 0.97, -11.09, 58.18)"/><path class="cls-13" d="M211.43,251.79a33.48,33.48,0,1,0,54.5,38.91c10.74-15.05,4.34-29.07-10.71-39.81S222.17,236.74,211.43,251.79Z"/><path class="cls-14" d="M225,301.92a34.48,34.48,0,0,1-5.48-3.18A33.48,33.48,0,0,1,211.76,252c10.74-15.05,28.74-11.65,43.79-.9a58,58,0,0,1,4.91,3.89c-13.78-7.85-28.94-9-38.43,4.34A33.5,33.5,0,0,0,225,301.92Z"/><ellipse class="cls-11" cx="247.91" cy="258.31" rx="5.14" ry="12.39" transform="translate(-106.37 309.99) rotate(-54.48)"/><path class="cls-6" d="M298.6,53.63c-16.67-6.1-35.94,4.69-43,24.09s.67,40.07,17.34,46.16,60.17,4.17,67.26-15.23S315.27,59.72,298.6,53.63Z"/><ellipse class="cls-10" cx="299" cy="93.6" rx="9.72" ry="36.52" transform="translate(108.41 342.27) rotate(-69.91)"/><ellipse class="cls-10" cx="282.79" cy="64.83" rx="8.69" ry="2.31" transform="translate(124.78 308.15) rotate(-69.91)"/><ellipse class="cls-10" cx="292.09" cy="68.23" rx="8.69" ry="2.31" transform="translate(127.69 319.13) rotate(-69.91)"/><ellipse class="cls-10" cx="301.4" cy="71.64" rx="8.69" ry="2.31" transform="translate(130.61 330.1) rotate(-69.91)"/><ellipse class="cls-10" cx="310.26" cy="76.27" rx="7.38" ry="2.31" transform="translate(132.07 341.46) rotate(-69.91)"/><ellipse class="cls-10" cx="319.19" cy="80.68" rx="6.31" ry="2.31" transform="translate(133.8 352.75) rotate(-69.91)"/><ellipse class="cls-10" cx="328.03" cy="88.18" rx="4.81" ry="2.31" transform="translate(37.32 263.86) rotate(-46.19)"/><ellipse class="cls-10" cx="334.05" cy="96.21" rx="3.18" ry="2.31" transform="translate(33.37 270.68) rotate(-46.19)"/><ellipse class="cls-10" cx="268.1" cy="104.98" rx="8.69" ry="2.31" transform="translate(77.43 320.72) rotate(-69.91)"/><ellipse class="cls-10" cx="277.41" cy="108.38" rx="8.69" ry="2.31" transform="translate(80.35 331.7) rotate(-69.91)"/><ellipse class="cls-10" cx="286.72" cy="111.78" rx="8.69" ry="2.31" transform="translate(83.26 342.67) rotate(-69.91)"/><ellipse class="cls-10" cx="296.47" cy="113.96" rx="7.38" ry="2.31" transform="translate(87.62 353.26) rotate(-69.91)"/><ellipse class="cls-10" cx="306.15" cy="116.36" rx="6.31" ry="2.31" transform="matrix(0.34, -0.94, 0.94, 0.34, 91.72, 363.92)"/><ellipse class="cls-10" cx="317.73" cy="116.33" rx="2.31" ry="4.81" transform="translate(-6.74 20.38) rotate(-3.64)"/><ellipse class="cls-10" cx="327.52" cy="114.07" rx="2.31" ry="3.18" transform="translate(-6.57 21) rotate(-3.64)"/><circle class="cls-11" cx="262.76" cy="117" r="21.07"/><path class="cls-12" d="M267.91,137.43a20.76,20.76,0,0,1-5.15.63,21.07,21.07,0,0,1,0-42.13,20.76,20.76,0,0,1,5.15.64,21.07,21.07,0,0,0,0,40.86Z"/></g></svg>