<svg xmlns="http://www.w3.org/2000/svg" viewBox="0 0 512 512"><defs><style>.cls-1{fill:#4f619d;}.cls-2{fill:#7f522f;}.cls-3{fill:#623e27;}.cls-4{fill:#7b4f2e;}.cls-5{fill:#99112e;}.cls-6{fill:#d93a46;}.cls-7{fill:#d9727e;}.cls-8{fill:#c4c4c4;}.cls-9{fill:#fff;}.cls-10{fill:#935d32;}.cls-11{fill:#c27135;}.cls-12{fill:#a66532;}.cls-13{fill:#f0c788;}.cls-14{fill:#f4ebbb;}.cls-15{fill:#ddd4a8;}.cls-16{fill:#f1ce34;}.cls-17{fill:#d1b430;}.cls-18{fill:#986f4b;}.cls-19{fill:#ad7d55;}</style></defs><title>Food</title><g id="BULINE"><circle class="cls-1" cx="256.01" cy="256" r="256"/></g><g id="Icons"><path class="cls-2" d="M464.68,237.23l-3.84-25.87a3.71,3.71,0,0,0-5.24-2.82l-18.9,8.86a37,37,0,0,0-43.35-22.65c-4.74,1.16-9.49,2.12-14.22,2.87A168.63,168.63,0,0,1,357,199.68,171.44,171.44,0,0,1,327.54,198a173.12,173.12,0,0,1-21.87-4.66,172.25,172.25,0,0,1-27-10.11,173.16,173.16,0,0,1-42-27.9,171.87,171.87,0,0,1-43.45-61,173.36,173.36,0,0,1-8.56-25.89c0-.13-.07-.28-.1-.42a36.76,36.76,0,0,0-12.32-19.31c-.2-.16-.38-.32-.58-.47l-.19-.15c-.67-.52-1.36-1-2.06-1.49a37,37,0,0,0-56.61,39.51,244.66,244.66,0,0,0,93.87,140.16q8.63,6.27,17.87,11.88,5.25,3.18,10.63,6.09l2.7,1.43c.72.38,1.44.76,2.17,1.13s1.46.74,2.19,1.1,1.2.61,1.8.9c1.08.53,2.16,1.06,3.26,1.57A244.55,244.55,0,0,0,411,266.61a37,37,0,0,0,28.11-33.74l20.49,8.34A3.71,3.71,0,0,0,464.68,237.23Z"/><path class="cls-3" d="M203.13,114.05l-12.23,7.3a11,11,0,0,1-11.28-18.89l13.64-8.15A169.83,169.83,0,0,0,203.13,114.05Z"/><path class="cls-3" d="M267.25,202.32A11,11,0,0,1,248.37,191l11.05-18.45a174.41,174.41,0,0,0,19.27,10.63Z"/><path class="cls-3" d="M236.71,155.3l-13,15.38a11,11,0,1,1-16.82-14.19l14.34-17A170.78,170.78,0,0,0,236.71,155.3Z"/><path class="cls-4" d="M366.13,232.76a11,11,0,0,1-10.37-11.59L357,199.68a168.63,168.63,0,0,0,22.15-2.06l-1.4,24.79A11,11,0,0,1,366.13,232.76Z"/><path class="cls-3" d="M302.85,229.28a11,11,0,0,1-6-14.34l8.84-21.63A173.12,173.12,0,0,0,327.54,198L317.2,223.26A11,11,0,0,1,302.85,229.28Z"/><path class="cls-3" d="M157.06,112.86A37,37,0,0,1,184.17,68.1l.46-.11A37,37,0,0,0,148,40.3l-.57-23.36a3.72,3.72,0,0,0-5.68-3.06L119.53,27.74a3.71,3.71,0,0,0-.49,5.93L131.47,44.6a37,37,0,0,0-18.58,41.52,244.81,244.81,0,0,0,111.7,152,250.07,250.07,0,0,0,22.77,12.24A244.63,244.63,0,0,1,157.06,112.86Z"/><path class="cls-5" d="M471.43,200.36a2.7,2.7,0,0,1,3.61,1.46,57.28,57.28,0,0,1-104.42,46.81,2.69,2.69,0,0,1,1.31-3.66Z"/><path class="cls-6" d="M379.36,241.64A46.38,46.38,0,1,0,464,203.69Z"/><path class="cls-7" d="M430.41,256.65a5.94,5.94,0,0,0,10.84-4.86c-1.34-3-6.38-7.72-9.37-6.38S429.07,253.66,430.41,256.65Z"/><path class="cls-7" d="M459.18,221a5.94,5.94,0,1,0-4.86-10.84c-3,1.34-7.72,6.37-6.37,9.37S456.19,222.35,459.18,221Z"/><path class="cls-7" d="M451.22,242.94a5.94,5.94,0,0,0,3.67-11.3c-3.12-1-10-.46-11,2.66S448.1,241.92,451.22,242.94Z"/><path class="cls-7" d="M394.9,249.83A5.94,5.94,0,1,1,390,239c3-1.35,9.9-1.53,11.24,1.47S397.9,248.48,394.9,249.83Z"/><path class="cls-7" d="M416.57,258.47a5.94,5.94,0,1,1-10.87-4.78c1.31-3,6.31-7.77,9.31-6.45S417.89,255.46,416.57,258.47Z"/><path class="cls-5" d="M142.82,242.48a2.7,2.7,0,0,1,1.73,3.49A57.29,57.29,0,0,1,35.42,211.54a2.69,2.69,0,0,1,3.41-1.87Z"/><path class="cls-6" d="M46.6,212.12A46.38,46.38,0,0,0,135.06,240Z"/><path class="cls-7" d="M74.76,257.27a5.94,5.94,0,0,0,11.33,3.57c1-3.13.37-10-2.76-11S75.74,254.14,74.76,257.27Z"/><path class="cls-7" d="M120,249.76a5.94,5.94,0,1,0,3.57-11.33c-3.13-1-10-.36-11,2.76S116.82,248.78,120,249.76Z"/><path class="cls-7" d="M99.42,260.85a5.94,5.94,0,1,0,10.25-6c-1.65-2.83-7.17-7-10-5.33S97.76,258,99.42,260.85Z"/><path class="cls-7" d="M52.77,228.57a5.94,5.94,0,0,1,3.57-11.33c3.13,1,8.41,5.44,7.42,8.57S55.9,229.56,52.77,228.57Z"/><path class="cls-7" d="M63.22,249.43a5.94,5.94,0,1,1-5-10.8c3-1.37,9.88-1.61,11.25,1.37S66.2,248.06,63.22,249.43Z"/><path class="cls-8" d="M393.09,363.8H125.15a36.51,36.51,0,0,1-36-30.63h340A36.52,36.52,0,0,1,393.09,363.8Z"/><rect class="cls-9" x="15.51" y="276.08" width="478.45" height="57.09" rx="28.54"/><path class="cls-10" d="M468.19,158l-16.68-20.15a3.71,3.71,0,0,0-5.94.3L434,155.55a37,37,0,0,0-48.81,3.07q-5.18,5.17-10.68,9.82a169.4,169.4,0,0,1-17.88,13.24,170.8,170.8,0,0,1-26.07,13.78,171.4,171.4,0,0,1-21.12,7.34,172.36,172.36,0,0,1-28.32,5.33A173.59,173.59,0,0,1,230.75,206a171.88,171.88,0,0,1-21.4-5.51A171.35,171.35,0,0,1,162,176.33a173.14,173.14,0,0,1-20.73-17.71l-.31-.31a36.83,36.83,0,0,0-20.54-10.14l-.74-.1-.24,0c-.84-.1-1.69-.17-2.53-.21a38.21,38.21,0,0,0-5.35.13,37,37,0,0,0-22.62,63,244.65,244.65,0,0,0,152.89,71.28q10.63.9,21.45.91c4.09,0,8.18-.1,12.24-.3l3.05-.17,2.44-.16c.82-.05,1.64-.12,2.45-.19l2-.16c1.2-.11,2.4-.22,3.6-.35A244.6,244.6,0,0,0,437.5,211a37,37,0,0,0,6.57-43.42l21.85-3.47A3.71,3.71,0,0,0,468.19,158Z"/><path class="cls-4" d="M180.66,188.11,174,200.69a11,11,0,0,1-19.43-10.32l7.45-14A170.62,170.62,0,0,0,180.66,188.11Z"/><path class="cls-4" d="M281.23,230.41a11,11,0,0,1-22,.11L259.12,209a173.61,173.61,0,0,0,22-.88Z"/><path class="cls-4" d="M230.75,206l-3.13,19.88a11,11,0,0,1-21.73-3.43l3.46-22A171.88,171.88,0,0,0,230.75,206Z"/><path class="cls-4" d="M381.58,205.24a11,11,0,0,1-14.87-4.55l-10.09-19a169.4,169.4,0,0,0,17.88-13.24l11.64,21.93A11,11,0,0,1,381.58,205.24Z"/><path class="cls-4" d="M325.64,235a11,11,0,0,1-12.57-9.15l-3.64-23.08a171.4,171.4,0,0,0,21.12-7.34l4.25,27A11,11,0,0,1,325.64,235Z"/><path class="cls-4" d="M140.64,211a37,37,0,0,1,0-52.33l.34-.33a37,37,0,0,0-45.71-4.69L82.68,133.91a3.71,3.71,0,0,0-6.44.32l-11.8,23.35a3.7,3.7,0,0,0,2.66,5.32l16.29,2.91A37,37,0,0,0,89,211a244.85,244.85,0,0,0,174.28,72.19,251.34,251.34,0,0,0,25.82-1.33A244.62,244.62,0,0,1,140.64,211Z"/><path class="cls-11" d="M220.6,258h-.18a124.29,124.29,0,0,1-33.08-4.31c-14-3.84-32.15-6.16-52.07-6.16-43.91,0-79.5,11.27-79.5,25.18,0,9.6,17,17.94,41.92,22.19a3,3,0,0,1,2.4,3v0c0,13.91,23.8,25.18,53.17,25.18,15.56,0,29.55-3.17,39.27-8.21a55.49,55.49,0,0,1,26.36-6.51l1.71,0c29.37,0,53.17-11.28,53.17-25.19S250,258,220.6,258Z"/><path class="cls-12" d="M175.57,320.71A104.66,104.66,0,0,1,153.26,323c-29.37,0-53.17-11.27-53.17-25.18v0a3,3,0,0,0-2.4-3c-25-4.25-41.92-12.59-41.92-22.19,0-13.91,35.6-25.18,79.5-25.18,7.75,0,15.23.35,22.31,1-33,3.06-57.14,12.72-57.14,24.17,0,9.6,17,17.94,41.92,22.19a3,3,0,0,1,2.4,3v0C144.76,308,157.38,316.71,175.57,320.71Z"/><rect class="cls-13" x="116.29" y="244.31" width="51.98" height="24.5" rx="12.25" transform="translate(122.96 -36.17) rotate(25.24)"/><rect class="cls-13" x="179.76" y="254.23" width="51.98" height="24.5" rx="12.25" transform="translate(-104.24 135.13) rotate(-29.36)"/><rect class="cls-13" x="135.35" y="281.41" width="51.98" height="24.5" rx="12.25" transform="translate(-45.54 30.09) rotate(-9.34)"/><rect class="cls-13" x="210.72" y="274.9" width="51.98" height="24.5" rx="12.25" transform="matrix(0.96, -0.27, 0.27, 0.96, -67.78, 73.2)"/><rect class="cls-13" x="74.45" y="260.42" width="51.98" height="24.5" rx="12.25" transform="translate(-42.94 19.93) rotate(-9.34)"/><ellipse class="cls-14" cx="344.34" cy="291.29" rx="88.33" ry="23.38"/><path class="cls-15" d="M363.18,314.11c-6.17.37-12.58.56-19.16.56-48.79,0-88.34-10.47-88.34-23.38s39.55-23.37,88.34-23.37c6.58,0,13,.19,19.16.55C323.61,270.79,294,280.12,294,291.29S323.61,311.8,363.18,314.11Z"/><path class="cls-16" d="M359.2,258.19H331.48a35.48,35.48,0,0,0-33.59,24A8.63,8.63,0,0,0,306,293.66h78.62a8.63,8.63,0,0,0,8.14-11.44A35.48,35.48,0,0,0,359.2,258.19Z"/><path class="cls-17" d="M320.14,282.22a8.63,8.63,0,0,0,8.14,11.44H306a8.62,8.62,0,0,1-8.14-11.44,35.48,35.48,0,0,1,33.58-24h22.26A35.48,35.48,0,0,0,320.14,282.22Z"/><path class="cls-18" d="M488.25,363.8A256.69,256.69,0,0,1,346.44,495.56H165.56A256.69,256.69,0,0,1,23.75,363.8Z"/><path class="cls-19" d="M461.22,409.06a255.92,255.92,0,0,1-410.44,0Z"/></g></svg>