<svg xmlns="http://www.w3.org/2000/svg" viewBox="0 0 512 512"><defs><style>.cls-1{fill:#f55b4b;}.cls-2{fill:#fff;}.cls-3{fill:#e2e1e0;}.cls-4{fill:#b77f69;}.cls-5{fill:#a06d5d;}.cls-6{fill:#a65c3b;}.cls-7{fill:#9e4830;}.cls-8{fill:#e88032;}.cls-9{fill:#d16c28;}.cls-10{fill:#f6c752;}.cls-11{fill:#f7bb38;}.cls-12{fill:#fa3268;}</style></defs><title>English Food</title><g id="BULINE"><circle class="cls-1" cx="256" cy="256" r="256"/></g><g id="Icons"><circle class="cls-2" cx="256" cy="256" r="223.15"/><path class="cls-3" d="M231.07,454.29a221.39,221.39,0,0,0,63.69,21.5A224,224,0,0,1,256,479.15C132.76,479.15,32.85,379.24,32.85,256S132.76,32.85,256,32.85a224,224,0,0,1,38.76,3.36,223.23,223.23,0,0,0-148,342,223.89,223.89,0,0,0,84.27,76.05Z"/><path class="cls-4" d="M439.43,221.39a68.07,68.07,0,0,0-68.07-68.07c-.88,0-1.76,0-2.63.06A87.34,87.34,0,0,0,258.36,79.3a87.42,87.42,0,0,0-120.29,39.75,87.57,87.57,0,0,1-28.76,33.65,87.36,87.36,0,0,0-20.9,121.37,65.74,65.74,0,0,1,12.22,38.69c0,.33,0,.67,0,1a68.07,68.07,0,0,0,68.07,68.07l.66,0c-.11,1.55-.18,3.11-.18,4.68A68.07,68.07,0,0,0,297,419.11a26.51,26.51,0,0,1,25.68-13.69,89.18,89.18,0,0,0,9.71.37c46.09-.79,84-37.9,85.8-84a87.1,87.1,0,0,0-9.64-43.42A68,68,0,0,0,439.43,221.39Z"/><path class="cls-5" d="M110.38,256A222.2,222.2,0,0,0,146.8,378.24a68.11,68.11,0,0,1-46.19-64.48c0-.34,0-.66,0-1a65.71,65.71,0,0,0-12.21-38.69,87.38,87.38,0,0,1,20.9-121.38,87.59,87.59,0,0,0,28.77-33.64A87.36,87.36,0,0,1,211.5,69.13,223,223,0,0,0,110.38,256Z"/><path class="cls-6" d="M159.43,284l-41.64-11.85a17.41,17.41,0,0,1-12.65-16.75v-53a17.42,17.42,0,0,1,22.19-16.76L169,197.51a17.42,17.42,0,0,1,12.66,16.76v53A17.42,17.42,0,0,1,159.43,284Z"/><path class="cls-7" d="M179.25,276.05a17.41,17.41,0,0,1-19.82,8l-41.64-11.84a17.44,17.44,0,0,1-12.65-16.77v-53a17.41,17.41,0,0,1,22.06-16.79,17.18,17.18,0,0,0-2.38,8.79v53a17.43,17.43,0,0,0,12.66,16.76L179.11,276Z"/><path class="cls-6" d="M415.87,288,384.7,318a17.39,17.39,0,0,1-20.84,2.52L318,293.9a17.43,17.43,0,0,1-3.33-27.61l31.16-30a17.42,17.42,0,0,1,20.85-2.52l45.82,26.62A17.43,17.43,0,0,1,415.87,288Z"/><path class="cls-7" d="M418.94,266.82A17.42,17.42,0,0,1,415.87,288l-31.16,30a17.41,17.41,0,0,1-20.85,2.52L318,293.9a17.41,17.41,0,0,1-3.43-27.51,17.11,17.11,0,0,0,6.4,6.47l45.82,26.62A17.41,17.41,0,0,0,387.68,297l31.16-30Z"/><path class="cls-6" d="M241.42,417.21l-35.57-24.68a17.4,17.4,0,0,1-6.56-19.94l17.13-50.16a17.43,17.43,0,0,1,26.42-8.68l35.57,24.68A17.41,17.41,0,0,1,285,358.37l-17.13,50.15A17.42,17.42,0,0,1,241.42,417.21Z"/><path class="cls-7" d="M262.75,416.07a17.42,17.42,0,0,1-21.33,1.14l-35.57-24.67a17.45,17.45,0,0,1-6.56-20l17.13-50.14a17.41,17.41,0,0,1,26.31-8.76,17.17,17.17,0,0,0-5.09,7.55l-17.13,50.14a17.44,17.44,0,0,0,6.55,20L262.63,416Z"/><path class="cls-6" d="M277,118.17l-23.49,19.36a12.25,12.25,0,0,1-14.75.63L208.09,117a12.25,12.25,0,0,1-.84-19.53l23.49-19.37a12.25,12.25,0,0,1,14.75-.63l30.68,21.17A12.26,12.26,0,0,1,277,118.17Z"/><path class="cls-7" d="M280.31,103.51A12.26,12.26,0,0,1,277,118.17l-23.48,19.36a12.27,12.27,0,0,1-14.76.63L208.09,117a12.24,12.24,0,0,1-.91-19.47,12.07,12.07,0,0,0,4.14,4.88L242,123.57a12.27,12.27,0,0,0,14.76-.63l23.48-19.36Z"/><rect class="cls-8" x="155.68" y="274.61" width="47.14" height="96.56" rx="15.45" transform="translate(313.78 -21.04) rotate(50.4)"/><path class="cls-9" d="M146.89,359.5l-10-12.1a15.45,15.45,0,0,1,2-21.75l50.6-41.85a15.44,15.44,0,0,1,21.75,2l10,12.11a15.45,15.45,0,0,0-21.75-2.05l-50.6,41.86A15.44,15.44,0,0,0,146.89,359.5Z"/><rect class="cls-8" x="312.36" y="294.06" width="47.14" height="96.56" rx="15.45" transform="matrix(-0.53, 0.85, -0.85, -0.53, 804.19, 238.54)"/><path class="cls-9" d="M291,323.22l8.32-13.33A15.46,15.46,0,0,1,320.55,305l55.71,34.76A15.45,15.45,0,0,1,381.2,361l-8.32,13.33a15.45,15.45,0,0,0-4.94-21.28L312.23,318.3A15.45,15.45,0,0,0,291,323.22Z"/><rect class="cls-8" x="213.8" y="178.56" width="47.14" height="96.56" rx="15.45" transform="translate(320.13 -90.89) rotate(60.9)"/><path class="cls-9" d="M198.87,257l-7.64-13.73a15.44,15.44,0,0,1,6-21l57.38-31.94a15.44,15.44,0,0,1,21,6L283.24,210a15.44,15.44,0,0,0-21-6L204.86,236A15.44,15.44,0,0,0,198.87,257Z"/><rect class="cls-8" x="127.15" y="84.97" width="47.14" height="96.56" rx="15.45" transform="translate(129.96 -66.85) rotate(42.6)"/><path class="cls-9" d="M123.63,173.93l-11.57-10.64a15.44,15.44,0,0,1-.92-21.82l44.45-48.34a15.46,15.46,0,0,1,21.83-.92L189,102.84a15.45,15.45,0,0,0-21.83.93l-44.45,48.34A15.44,15.44,0,0,0,123.63,173.93Z"/><path class="cls-10" d="M128.23,326.86a13.54,13.54,0,0,0,16.16,1.95C173,312.2,201.65,276,191.19,251.75S134.78,223.44,103,232.86A13.52,13.52,0,0,0,93.36,246Q93.93,293.66,128.23,326.86Z"/><path class="cls-11" d="M103.15,268.65a117.57,117.57,0,0,0,4.76,32.45q-14.19-24.6-14.54-55.16A13.49,13.49,0,0,1,103,232.87c31.75-9.42,77.7-5.38,88.16,18.89a28.2,28.2,0,0,1,2.17,12.53c-17.28-15.05-53.91-16.63-80.54-8.72A13.52,13.52,0,0,0,103.15,268.65Z"/><path class="cls-10" d="M307.64,320.21a13.51,13.51,0,0,0,7.06-14.66c-6.46-32.48-31.45-71.25-57.79-69.19s-45,44.23-46.36,77.32a13.5,13.5,0,0,0,9.25,13.38Q265.15,342,307.64,320.21Z"/><path class="cls-11" d="M244.45,325.13a117.36,117.36,0,0,0,32.25,6q-27.87,5.49-56.9-4.05a13.52,13.52,0,0,1-9.25-13.38c1.34-33.08,20-75.26,46.37-77.32a28.28,28.28,0,0,1,12.55,2c-19.83,11.49-33.15,45.64-34.27,73.4A13.5,13.5,0,0,0,244.45,325.13Z"/><path class="cls-10" d="M151.91,215.59a13.51,13.51,0,0,0,14.42,7.54c32.67-5.41,72.22-29.14,71-55.54s-42.76-46.42-75.79-48.83a13.52,13.52,0,0,0-13.67,8.82Q131.53,172.43,151.91,215.59Z"/><path class="cls-11" d="M149,152.28a117.61,117.61,0,0,0-7,32q-4.59-28,5.88-56.74a13.52,13.52,0,0,1,13.67-8.82c33,2.41,74.58,22.44,75.79,48.84a28.21,28.21,0,0,1-2.4,12.48c-10.85-20.19-44.55-34.6-72.26-36.62A13.52,13.52,0,0,0,149,152.28Z"/><path class="cls-12" d="M458.63,189.56a74.06,74.06,0,0,0-7.51-11.37,75.13,75.13,0,0,0-23.23-19.45,63.24,63.24,0,0,0-7.8-28.89,6.81,6.81,0,0,0-11.81,6.78,53.12,53.12,0,0,1,5.46,16c-15.28-5.91-22.26-14.68-25.39-22.19,8.52-14.21,10.41-25.86,10.56-26.89a6.81,6.81,0,0,0-13.47-2,51,51,0,0,1-2.41,8.66c-.28-.62-.58-1.22-.9-1.82-5-9.2-11.31-14-18.72-14.13a18.31,18.31,0,0,0-7.11,1.31,98.76,98.76,0,0,1,1.75-16.31,6.81,6.81,0,0,0-13.3-3,113,113,0,0,0-1.87,30.07,43.54,43.54,0,0,0-2.74,3.88l-.05.09c-4.11,7-8.35,11.5-12.67,13.53a57.6,57.6,0,0,1,1.35-27.42A6.81,6.81,0,0,0,315.88,92a72.14,72.14,0,0,0-2.57,30.18,40.83,40.83,0,0,1-8.16-6.87,51.78,51.78,0,0,0-14.25-10.81,78.57,78.57,0,0,0,1.74-26.67,6.81,6.81,0,0,0-13.48,1.92A64.1,64.1,0,0,1,278,100c-1.51-.3-3-.53-4.57-.69a39.79,39.79,0,0,0-17.66,1.95c-.89-10.4,6.06-17.54,7.13-18.57a6.81,6.81,0,0,0-9.34-9.92c-6.3,5.91-14.7,19.76-10.2,36.17A38.44,38.44,0,0,0,233,125.82a6.81,6.81,0,0,0,13.12,3.65,25.51,25.51,0,0,1,3.69-7.34,48.76,48.76,0,0,0,9.39,10,62.66,62.66,0,0,1-13.47,8.64,6.81,6.81,0,0,0,2.95,13,6.71,6.71,0,0,0,2.94-.67,74.54,74.54,0,0,0,19.84-13.67,53.6,53.6,0,0,0,6.4,2.19c5.22,1.41,14.39,4.81,17.08,11.65a12.57,12.57,0,0,1,.85,4.26c-27.34-9.59-41.2-2.58-43.2-1.42a6.81,6.81,0,0,0,6.84,11.78c.14-.08,10.43-5.22,32.66,2.78-.7,1.36-1.49,2.75-2.38,4.2l-.06.09c-1,1.68-9.63,16.73-3.33,28,3.61,6.48,10.75,9.84,21.22,10A33.83,33.83,0,0,0,318,211.31a55.4,55.4,0,0,0-2.45,24.32,6.8,6.8,0,0,0,6.75,6,7,7,0,0,0,.79,0,6.81,6.81,0,0,0,6-7.55,41.55,41.55,0,0,1,5.15-26c7.93.33,17.88,3.58,28.81,13.72a81.09,81.09,0,0,0,18.5,12.93,20.44,20.44,0,0,1-7.41,7.15,6.81,6.81,0,0,0,7.18,11.58,34,34,0,0,0,12.91-13.69,72.59,72.59,0,0,0,7.24,1.74A75.34,75.34,0,0,0,415,242.82c7.69,0,14.07-1.58,19.07-4.68A63.77,63.77,0,0,1,439.2,271a6.8,6.8,0,0,0,6.07,7.47c.24,0,.48,0,.71,0a6.81,6.81,0,0,0,6.77-6.12,77.18,77.18,0,0,0-7.65-43.12,6.81,6.81,0,0,0,5.93-.82c6.92-4.66,11-10.64,12.12-17.77C464.16,204.26,462.64,197.18,458.63,189.56Zm-88.46-74.71a21.31,21.31,0,0,1,2.34,8,42.67,42.67,0,0,0,.94,5.51,83.91,83.91,0,0,1-6.4,8c-5.82-7.4-8.68-16.56-9.94-25.36,2.06-1.85,4.24-3.19,6-3.14C365.19,107.87,367.77,110.43,370.17,114.85Zm-23.85,10.38a59.22,59.22,0,0,0,10.76,20.44,94.84,94.84,0,0,1-11.23,7.77,7.14,7.14,0,0,0-1.47-1.7A49.08,49.08,0,0,1,332,136.68Q339.68,133.5,346.32,125.23ZM272.1,112.84c.54.06,1.08.12,1.62.2a55,55,0,0,1-5.25,9,35.34,35.34,0,0,1-7.77-8.1A26.72,26.72,0,0,1,272.1,112.84Zm35.5,35.35c-3.67-9.31-12.72-16.15-26.18-19.81l-.68-.2a70.29,70.29,0,0,0,5.79-10.57,37.82,37.82,0,0,1,8.64,6.94c7.19,7.73,14.82,12.37,22.42,13.7A61,61,0,0,0,333,159.92a126.6,126.6,0,0,1-15.28,5.36,7,7,0,0,0-2.13,1q-3.42-1.83-6.64-3.38A27.57,27.57,0,0,0,307.6,148.19Zm8.29,49.44a21.26,21.26,0,0,1-8.16,1.65c-5-.07-8.49-1.16-9.52-3-1.71-3,.7-10.32,3.1-14.4,1.25-2,2.33-4,3.29-5.93a184.59,184.59,0,0,1,23.33,13.95,6.77,6.77,0,0,0,2.1,1q-1.66,1.88-3.24,4A45.2,45.2,0,0,0,315.89,197.63Zm133.8,11a11.42,11.42,0,0,1-4,6.8,6.8,6.8,0,0,0-11.62-2.69,76.21,76.21,0,0,0-14.78-13.63,6.81,6.81,0,0,0-7.48,11.39,67.06,67.06,0,0,1,15.51,15.83c-4.59,3.14-12.66,3.76-23.41,1.78a57.61,57.61,0,0,1-6.56-1.62A44.18,44.18,0,0,0,394,209.31a43.39,43.39,0,0,0-9.5-14.13c-12.36-12.57-5.62-29.87-5.29-30.68a6.81,6.81,0,0,0-12.59-5.2c-.44,1.06-10.63,26.31,8.16,45.43a29.64,29.64,0,0,1,6.57,9.63,39.44,39.44,0,0,1,1.77,5.59,69,69,0,0,1-10.77-8.19c-9.95-9.23-19.55-13.89-28.06-15.94a55.58,55.58,0,0,1,13.2-8.84A6.81,6.81,0,0,0,352,174.51a62,62,0,0,0-13.52,8.37,6.78,6.78,0,0,0-2.77-4.16q-2.49-1.72-4.9-3.31A117.1,117.1,0,0,0,368,154.33a5.67,5.67,0,0,0,.58,0,6.8,6.8,0,0,0,6.8-7c1.47-1.54,2.84-3.07,4.14-4.61,5.45,8.58,15,17.58,31.72,23.47.82.29,1.63.6,2.43.91a32.8,32.8,0,0,1-8.63,16.52,6.81,6.81,0,0,0,9.87,9.39,45.92,45.92,0,0,0,11.15-19.49,60.53,60.53,0,0,1,14.33,13.08C447.36,195.43,450.57,203,449.69,208.59Z"/></g></svg>