<svg xmlns="http://www.w3.org/2000/svg" viewBox="0 0 512 512"><defs><style>.cls-1{fill:#00b564;}.cls-2{fill:#fff;}.cls-3{fill:#e2e2e2;}.cls-4{fill:#9e4830;}.cls-5{fill:#f6c752;}.cls-6{fill:#eab53d;}.cls-7{fill:#f9ebcd;}</style></defs><title>English Food</title><g id="BULINE"><circle class="cls-1" cx="256" cy="256" r="256"/></g><g id="Icons"><path class="cls-2" d="M481.64,205H451.27c-22.45-87.88-102.15-152.86-197-152.86s-174.57,65-197,152.86H30.36a13,13,0,0,0-13,13v75a13,13,0,0,0,13,13H57.24c22.44,87.88,102.14,152.86,197,152.86s174.57-65,197-152.86h30.37a13,13,0,0,0,13-13V218A13,13,0,0,0,481.64,205Z"/><circle class="cls-3" cx="256" cy="255.48" r="185.5"/><circle class="cls-4" cx="256" cy="255.48" r="168.65"/><ellipse class="cls-5" cx="321.42" cy="163.6" rx="58" ry="40.53" transform="translate(3.05 333.05) rotate(-55)"/><path class="cls-6" d="M294,214.28a28.84,28.84,0,0,1-5.88-3.17c-18.34-12.84-18.3-44.52.07-70.76s48.12-37.1,66.46-24.26a28.25,28.25,0,0,1,5,4.44c-18.34-7.31-44.06,3.85-60.57,27.44S280.88,199.54,294,214.28Z"/><ellipse class="cls-5" cx="354.22" cy="199.39" rx="58" ry="40.53" transform="translate(-52.24 203.82) rotate(-30)"/><path class="cls-6" d="M308,233.76a29,29,0,0,1-4-5.36c-11.19-19.39,2.23-48.09,30-64.1s59.29-13.29,70.48,6.1a28.06,28.06,0,0,1,2.65,6.13c-13.53-14.38-41.56-15.13-66.49-.73S302.29,214.84,308,233.76Z"/><ellipse class="cls-5" cx="368.82" cy="245.7" rx="58" ry="40.53" transform="translate(-20.01 33.08) rotate(-5)"/><path class="cls-6" d="M312.39,257.3a28.57,28.57,0,0,1-1.35-6.54c-2-22.3,22.34-42.64,54.25-45.43s59.35,13,61.3,35.32a28.64,28.64,0,0,1-.19,6.68c-6.19-18.76-31.27-31.28-59.95-28.77S315.23,237.76,312.39,257.3Z"/><ellipse class="cls-5" cx="362.48" cy="293.84" rx="40.53" ry="58" transform="translate(-37.61 533.96) rotate(-70)"/><path class="cls-6" d="M306.44,280.51A27.83,27.83,0,0,1,308,274c7.66-21,38.27-29.21,68.36-18.25s48.29,36.88,40.64,57.92a29,29,0,0,1-3,6c2.32-19.61-15.12-41.57-42.18-51.41S317.27,264,306.44,280.51Z"/><ellipse class="cls-5" cx="336.39" cy="334.79" rx="40.53" ry="58" transform="translate(-138.2 335.92) rotate(-45)"/><path class="cls-6" d="M291.24,299a28.41,28.41,0,0,1,4.14-5.24c15.83-15.83,47-10.29,69.67,12.36S393.23,360,377.4,375.8a28.41,28.41,0,0,1-5.24,4.14c10.39-16.79,3.86-44.06-16.5-64.41S308,288.63,291.24,299Z"/><ellipse class="cls-5" cx="295.44" cy="360.88" rx="40.53" ry="58" transform="translate(-105.61 122.81) rotate(-20)"/><path class="cls-6" d="M269.63,309.38a28.29,28.29,0,0,1,6-3c21-7.66,47,10.54,57.93,40.64s2.78,60.7-18.25,68.36a29.12,29.12,0,0,1-6.5,1.54c16.51-10.83,22.12-38.3,12.27-65.36S289.25,307.06,269.63,309.38Z"/><ellipse class="cls-5" cx="247.3" cy="367.21" rx="58" ry="40.53" transform="matrix(0.09, -1, 1, 0.09, -140.07, 581.57)"/><path class="cls-6" d="M245.68,309.63a28.63,28.63,0,0,1,6.68-.19c22.3,1.95,38.11,29.4,35.32,61.31S264.55,426.94,242.25,425a28.77,28.77,0,0,1-6.55-1.35c19.55-2.84,36.24-25.36,38.75-54.05S264.43,315.82,245.68,309.63Z"/><ellipse class="cls-5" cx="201" cy="352.61" rx="58" ry="40.53" transform="translate(-204.87 350.38) rotate(-60)"/><path class="cls-6" d="M223.86,299.74a28.3,28.3,0,0,1,6.13,2.64c19.39,11.2,22.12,42.76,6.1,70.5s-44.7,41.15-64.09,30a28.62,28.62,0,0,1-5.36-4c18.91,5.69,43.56-7.67,58-32.61S238.24,313.27,223.86,299.74Z"/><ellipse class="cls-5" cx="165.2" cy="319.81" rx="58" ry="40.53" transform="translate(-153.56 152.59) rotate(-35)"/><path class="cls-6" d="M208.27,281.55a29,29,0,0,1,4.44,5c12.84,18.34,2,48.1-24.27,66.47s-57.91,18.4-70.75.06a28.33,28.33,0,0,1-3.17-5.88c14.74,13.15,42.72,11.46,66.31-5.06S215.58,299.9,208.27,281.55Z"/><ellipse class="cls-5" cx="146.62" cy="274.95" rx="58" ry="40.53" transform="translate(-45.52 29.64) rotate(-10)"/><path class="cls-6" d="M201.82,258.48a29,29,0,0,1,1.92,6.4c3.88,22.05-18.54,44.42-50.09,50S93.39,307.07,89.51,285a28.25,28.25,0,0,1-.39-6.67c7.79,18.15,33.87,28.44,62.23,23.44S200.7,278.2,201.82,258.48Z"/><ellipse class="cls-5" cx="149.85" cy="225.33" rx="40.53" ry="58" transform="matrix(0.26, -0.97, 0.97, 0.26, -106.59, 311.76)"/><path class="cls-6" d="M206.84,233.73a28.76,28.76,0,0,1-1,6.61c-5.8,21.62-35.58,32.43-66.52,24.14S88,231.94,93.83,210.32a28.94,28.94,0,0,1,2.47-6.21c-.6,19.74,18.69,40.09,46.5,47.54S197.5,251.13,206.84,233.73Z"/><ellipse class="cls-5" cx="172.27" cy="182.26" rx="40.53" ry="58" transform="translate(-78.08 197.08) rotate(-50)"/><path class="cls-6" d="M220.37,214a27.86,27.86,0,0,1-3.67,5.58c-14.39,17.15-45.94,14.36-70.48-6.23S113.46,162.13,127.85,145a28.06,28.06,0,0,1,4.86-4.58c-8.89,17.63,0,44.23,22,62.73S204.55,225.78,220.37,214Z"/><ellipse class="cls-5" cx="209.68" cy="153.82" rx="40.53" ry="58" transform="translate(-45.36 103.03) rotate(-25)"/><path class="cls-6" d="M239.88,202.88a28.74,28.74,0,0,1-5.69,3.51C213.9,215.85,186.48,200,173,171s-8.07-60.23,12.22-69.69a28.08,28.08,0,0,1,6.34-2.1c-15.51,12.22-18.7,40.08-6.53,66.17S220.54,206.9,239.88,202.88Z"/><ellipse class="cls-5" cx="257.08" cy="143.31" rx="40.53" ry="58"/><path class="cls-6" d="M263.72,200.54a28.78,28.78,0,0,1-6.64.77c-22.38,0-40.53-26-40.53-58s18.15-58,40.53-58a28.78,28.78,0,0,1,6.64.77c-19.22,4.53-33.89,28.43-33.89,57.22S244.5,196,263.72,200.54Z"/><ellipse class="cls-5" cx="297.92" cy="214.75" rx="49.26" ry="34.42" transform="translate(-64.59 273.56) rotate(-45)"/><path class="cls-6" d="M267.54,253.1a24.52,24.52,0,0,1-4.45-3.52c-13.44-13.44-8.74-39.94,10.49-59.17s45.73-23.94,59.17-10.49a24.18,24.18,0,0,1,3.52,4.45c-14.26-8.83-37.42-3.28-54.71,14S258.72,238.84,267.54,253.1Z"/><ellipse class="cls-5" cx="313.91" cy="245.45" rx="49.26" ry="34.42" transform="translate(-37.85 58.24) rotate(-10)"/><path class="cls-6" d="M267,259.45A24,24,0,0,1,265.4,254c-3.31-18.72,15.74-37.73,42.53-42.45s51.18,6.62,54.48,25.34a23.56,23.56,0,0,1,.33,5.67c-6.62-15.41-28.77-24.15-52.85-19.91S268,242.7,267,259.45Z"/><ellipse class="cls-5" cx="309.39" cy="279.78" rx="34.42" ry="49.26" transform="translate(-74.93 441.94) rotate(-65)"/><path class="cls-6" d="M263,264.35a24.34,24.34,0,0,1,1.78-5.39c8-17.23,34.54-21.87,59.2-10.38s38.12,34.78,30.09,52a24,24,0,0,1-3,4.82c3.41-16.42-9.72-36.28-31.88-46.62S273.34,251.18,263,264.35Z"/><ellipse class="cls-5" cx="286" cy="305.3" rx="34.42" ry="49.26" transform="translate(-114.33 183.9) rotate(-30)"/><path class="cls-6" d="M256.82,266a23.83,23.83,0,0,1,4.55-3.39c16.46-9.51,40.84,1.89,54.44,25.45s11.28,50.36-5.18,59.87a24.64,24.64,0,0,1-5.21,2.25c12.21-11.5,12.85-35.3.62-56.48S272.88,261.2,256.82,266Z"/><ellipse class="cls-5" cx="252.2" cy="312.79" rx="49.26" ry="34.42" transform="translate(-81.38 536.77) rotate(-85)"/><path class="cls-6" d="M250.82,263.89a23.87,23.87,0,0,1,5.67-.17c18.94,1.66,32.37,25,30,52.08s-19.64,47.72-38.58,46.06a24.1,24.1,0,0,1-5.56-1.15c16.6-2.4,30.77-21.54,32.9-45.9S266.75,269.14,250.82,263.89Z"/><ellipse class="cls-5" cx="220.22" cy="299.54" rx="49.26" ry="34.42" transform="translate(-150.8 275.7) rotate(-50)"/><path class="cls-6" d="M247.14,258.69a24,24,0,0,1,4.74,3.12c14.56,12.22,12.19,39-5.3,59.86s-43.46,27.83-58,15.61a24.88,24.88,0,0,1-3.89-4.13c15,7.55,37.57,0,53.28-18.73S257.17,272.13,247.14,258.69Z"/><ellipse class="cls-5" cx="201.62" cy="270.35" rx="49.26" ry="34.42" transform="translate(-63.1 61.39) rotate(-15)"/><path class="cls-6" d="M247.1,252.32a24.24,24.24,0,0,1,2.1,5.28c4.92,18.36-12.4,38.95-38.68,46S159,301.46,154,283.09a23.92,23.92,0,0,1-.82-5.61C161.16,292.25,184,299,207.6,292.7S247.61,269.09,247.1,252.32Z"/><ellipse class="cls-5" cx="203.13" cy="235.76" rx="34.42" ry="49.26" transform="translate(-87.89 346) rotate(-70)"/><path class="cls-6" d="M250.73,247.09a24.9,24.9,0,0,1-1.31,5.52c-6.51,17.86-32.5,24.8-58.07,15.5s-41-31.33-34.51-49.2a24.57,24.57,0,0,1,2.55-5.07c-2,16.66,12.84,35.3,35.82,43.67S241.53,261.11,250.73,247.09Z"/><ellipse class="cls-5" cx="224.2" cy="208.3" rx="34.42" ry="49.26" transform="translate(-78.93 166.27) rotate(-35)"/><path class="cls-6" d="M256.7,244.87a25.08,25.08,0,0,1-4.24,3.78c-15.58,10.9-40.85,1.67-56.46-20.61S180.38,178.85,196,168a24.2,24.2,0,0,1,5-2.7c-11.17,12.52-9.73,36.29,4.29,56.32S241.12,251.09,256.7,244.87Z"/><ellipse class="cls-5" cx="257.22" cy="197.89" rx="34.42" ry="49.26"/><path class="cls-6" d="M262.86,246.49a24.71,24.71,0,0,1-5.64.66c-19,0-34.42-22.06-34.42-49.27s15.41-49.25,34.42-49.25a24.17,24.17,0,0,1,5.64.66c-16.33,3.84-28.78,24.14-28.78,48.59S246.53,242.64,262.86,246.49Z"/><path class="cls-1" d="M349.43,172.6c-2.35-1.67-8.4,2.81-13.52,10-.41.56-.79,1.13-1.16,1.7-.79-5.72-2.64-9.73-4.8-9.73s-4,4.11-4.82,9.93c-.41-.63-.83-1.27-1.29-1.9-5.12-7.19-11.17-11.67-13.52-10s-.09,8.86,5,16.05c3.39,4.76,7.19,8.32,10,9.7.89,4.89,2.6,8.19,4.55,8.19s3.68-3.34,4.57-8.27c2.84-1.44,6.56-5,9.88-9.62C349.53,181.46,351.78,174.27,349.43,172.6Z"/><path class="cls-1" d="M205,152.56c-2.08,2,1.2,8.78,7.31,15.14.49.51,1,1,1.46,1.46-5.76-.29-10.05.79-10.45,2.91s3.29,4.74,8.86,6.58c-.69.28-1.4.58-2.11.91-8,3.7-13.53,8.82-12.33,11.43s8.69,1.74,16.7-2c5.31-2.45,9.51-5.52,11.4-8.08,5,0,8.53-1,8.9-2.95s-2.61-4.24-7.29-6c-.88-3.06-3.64-7.36-7.62-11.49C213.75,154.11,207.11,150.57,205,152.56Z"/><path class="cls-1" d="M291.07,362.86c1.68-2.34-2.76-8.41-9.93-13.57-.57-.41-1.13-.8-1.7-1.17,5.73-.76,9.74-2.59,9.76-4.75s-4.09-4.07-9.91-4.87c.64-.41,1.27-.83,1.91-1.28,7.22-5.08,11.73-11.11,10.07-13.47s-8.86-.14-16.07,4.95c-4.78,3.36-8.36,7.14-9.76,10-4.89.87-8.2,2.55-8.21,4.51s3.32,3.7,8.25,4.61c1.42,2.85,4.92,6.58,9.57,9.93C282.21,362.91,289.38,365.2,291.07,362.86Z"/><path class="cls-1" d="M351.79,293.88c2.57-1.29,1.44-8.73-2.53-16.62-.31-.62-.64-1.23-1-1.82,5.43,2,9.84,2.21,10.85.3s-1.74-5.5-6.53-8.9c.75-.07,1.51-.15,2.29-.25,8.75-1.17,15.53-4.44,15.15-7.29s-7.79-4.22-16.54-3.05c-5.8.78-10.72,2.48-13.27,4.36-4.74-1.49-8.46-1.53-9.37.2s1.23,4.82,5.18,7.91c-.05,3.18,1.32,8.11,3.9,13.23C343.91,289.83,349.21,295.18,351.79,293.88Z"/><path class="cls-1" d="M147,302.38c1,2.7,8.52,2.4,16.8-.67.66-.25,1.29-.5,1.91-.77-2.55,5.18-3.27,9.54-1.49,10.75s5.66-1.12,9.57-5.51c0,.76,0,1.52,0,2.3.2,8.83,2.7,15.93,5.58,15.86s5.05-7.27,4.85-16.1c-.13-5.84-1.28-10.92-2.87-13.67,2-4.54,2.45-8.23.83-9.33s-4.92.7-8.42,4.28c-3.16-.41-8.21.41-13.58,2.41C151.85,295,146,299.68,147,302.38Z"/><rect class="cls-7" x="24.28" y="217.59" width="30.05" height="13.39" rx="6.7"/><rect class="cls-7" x="24.28" y="238.85" width="30.05" height="13.39" rx="6.7"/><rect class="cls-7" x="24.28" y="260.12" width="30.05" height="13.39" rx="6.7"/><rect class="cls-7" x="24.28" y="281.38" width="30.05" height="13.39" rx="6.7"/><rect class="cls-7" x="456.1" y="217.59" width="30.05" height="13.39" rx="6.7"/><rect class="cls-7" x="456.1" y="238.85" width="30.05" height="13.39" rx="6.7"/><rect class="cls-7" x="456.1" y="260.12" width="30.05" height="13.39" rx="6.7"/><rect class="cls-7" x="456.1" y="281.38" width="30.05" height="13.39" rx="6.7"/></g></svg>