<?xml version="1.0" encoding="iso-8859-1"?>
<!-- Generator: Adobe Illustrator 19.0.1, SVG Export Plug-In . SVG Version: 6.00 Build 0)  -->
<svg version="1.1" xmlns="http://www.w3.org/2000/svg" xmlns:xlink="http://www.w3.org/1999/xlink" x="0px" y="0px"
	 viewBox="0 0 128 128" style="enable-background:new 0 0 128 128;" xml:space="preserve">
<g id="_x31_5">
	<path id="icon_14_" style="fill:#161616;" d="M63.999,118.981C28.112,118.981,0,105.692,0,88.727
		C0,75.224,18.224,63.58,45.348,59.754c1.161-0.157,2.214,0.639,2.376,1.787c0.161,1.15-0.639,2.213-1.789,2.376
		c-24.57,3.465-41.731,13.667-41.731,24.81c0,14.12,27.383,26.05,59.795,26.05c32.414,0,59.796-11.93,59.796-26.05
		c0-9.213-11.611-17.868-30.303-22.59c-1.126-0.285-1.808-1.427-1.523-2.552c0.285-1.124,1.423-1.809,2.552-1.523
		C115.484,67.356,128,77.324,128,88.727C128,105.692,99.888,118.981,63.999,118.981z M113.11,88.113
		c0,11.31-21.989,20.489-49.106,20.489c-27.132,0-49.12-9.179-49.12-20.489c0-9.586,15.766-17.644,37.082-19.886
		c3.405,3.742,7.904,6.573,13.174,7.96c8.927,2.34,17.966-0.014,24.525-5.55C103.72,74.239,113.11,80.714,113.11,88.113z
		 M41.174,75.486c0,0-28.029,6.951-10.511,19.564C29.963,90.762,27.622,83.713,41.174,75.486z M99.6,79.508
		c1.107,4.218,4.092,11.001-8.605,20.475C90.995,99.983,118.239,90.397,99.6,79.508z M112.577,9.423
		c-3.56-0.925-7.302-0.252-10.525,1.92c-3.125,2.102-5.395,5.368-6.391,9.179L86.37,55.88l-34.195-8.997
		c-2.873,10.931,3.658,22.101,14.575,24.974c10.259,2.705,20.769-2.915,24.371-12.669l0.168,0.042l9.796-37.278
		c0.659-2.509,2.102-4.611,4.092-5.956c1.878-1.261,3.994-1.668,5.984-1.149c4.232,1.121,6.615,6.11,5.283,11.141l5.424,1.415
		C123.971,19.387,119.809,11.328,112.577,9.423z"/>
</g>
<g id="Layer_1">
</g>
</svg>
